<svg xmlns="http://www.w3.org/2000/svg" viewBox="0 0 31.8 32.59"><defs><style>.cls-1{fill:#3d3d3d}</style></defs><title>SSB_Assets_GlobalAsset 19</title><g id="Layer_2" data-name="Layer 2"><g id="Layer_1-2" data-name="Layer 1"><path class="cls-1" d="M29.27 1.5h-1.91V1a1 1 0 1 0-1.94 0v.5h-5.05V1a1 1 0 0 0-1.95 0v.5h-5.05V1a1 1 0 0 0-1.94 0v.5h-5V1a1 1 0 0 0-2 0v.5h-1.9A2.53 2.53 0 0 0 0 4v3.7A2.52 2.52 0 0 0 1.56 10v20a2.52 2.52 0 0 0 2.52 2.53h23.64A2.52 2.52 0 0 0 30.24 30V10a2.53 2.53 0 0 0 1.56-2.3V4a2.53 2.53 0 0 0-2.53-2.5zM1.94 4a.59.59 0 0 1 .59-.59h1.9v.45a1 1 0 0 0 2 0v-.42h5.05v.45a1 1 0 1 0 1.94 0v-.45h5.05v.45a1 1 0 0 0 1.95 0v-.45h5.05v.45a1 1 0 1 0 1.94 0v-.45h1.91a.59.59 0 0 1 .58.59V7.7a.59.59 0 0 1-.58.59H2.53a.59.59 0 0 1-.59-.59zm25.78 26.65H4.08a.58.58 0 0 1-.58-.59V10.23h24.8v19.83a.58.58 0 0 1-.58.59zm0 0"/><path class="cls-1" d="M19.18 15.53a1 1 0 0 0 0-1.94h-6.56a1 1 0 0 0-1 1v4.79a1 1 0 0 0 1 1h5.59v3.32h-5.59a1 1 0 0 0 0 1.94h6.56a1 1 0 0 0 1-1v-5.29a1 1 0 0 0-1-1h-5.59v-2.82zm0 0"/></g></g></svg>