<svg preserveAspectRatio="xMidYMid slice" width="160" height="160" xmlns="http://www.w3.org/2000/svg" viewBox="0 0 167.93 167.93"><defs><style>.cls-1{fill:#1a75bb}</style></defs><g fill="#1a75bb" id="Layer_2"><g id="BG"><path class="cls-1" d="M84 167.93a84 84 0 1 1 84-84 84.06 84.06 0 0 1-84 84zM84 7.29A76.68 76.68 0 1 0 160.64 84 76.77 76.77 0 0 0 84 7.29z"/><path class="cls-1" d="M49.06 37.65c-4.09 0-7.89 2.07-10.71 5.83a22.2 22.2 0 0 0-4.16 13.28A22.2 22.2 0 0 0 38.35 70a15 15 0 0 0 5.5 4.63L40.7 122a8.38 8.38 0 1 0 16.72 0l-3.15-47.3a15 15 0 0 0 5.5-4.7 22.2 22.2 0 0 0 4.16-13.28 22.2 22.2 0 0 0-4.16-13.28c-2.77-3.72-6.62-5.79-10.71-5.79zm4.09 84.61a4.1 4.1 0 1 1-8.18 0l3.09-46.44h2zm-4.09-50.67a7.71 7.71 0 0 1-2.23-.33l-.18-.06c-4.68-1.54-8.17-7.42-8.17-14.44 0-8.18 4.75-14.83 10.59-14.83s10.59 6.65 10.59 14.83-4.76 14.83-10.6 14.83zM127.15 93.37V40.06a2.14 2.14 0 0 0-3.25-2.1A29.21 29.21 0 0 0 110 63v28a4.54 4.54 0 0 0 4.4 4.53v29a6.4 6.4 0 0 0 12.8 0V93.38zM114.23 91V63a24.93 24.93 0 0 1 8.65-19v47.24h-8.38a.26.26 0 0 1-.27-.24zm8.65 33.5a2.12 2.12 0 0 1-4.24 0v-29h4.24zM94.66 37.65a2.14 2.14 0 0 0-2.14 2.14v24.3h-5.45v-24.3a2.14 2.14 0 0 0-4.28 0v24.3h-5.44v-24.3a2.14 2.14 0 0 0-4.28 0v31a6.33 6.33 0 0 0 6.32 6.32h.38l-3 45.11a8.18 8.18 0 1 0 16.33 0l-3-45.11h.38a6.33 6.33 0 0 0 6.32-6.32v-31a2.14 2.14 0 0 0-2.14-2.14zm-5.83 84.82a3.9 3.9 0 1 1-7.79 0l3-45.39h1.75zm1.65-49.67H79.39a2 2 0 0 1-2-2v-2.44h15.13v2.39a2 2 0 0 1-2.04 2.04z"/></g></g></svg>