<svg preserveAspectRatio="xMidYMid slice" width="160" height="160" xmlns="http://www.w3.org/2000/svg" viewBox="0 0 167.93 167.93"><g fill="#1a75bb"><path class="cls-1" d="M84 167.93a84 84 0 1 1 84-84 84.06 84.06 0 0 1-84 84zM84 7.29A76.68 76.68 0 1 0 160.64 84 76.77 76.77 0 0 0 84 7.29z"/><path class="cls-1" d="M84 38.48A27.74 27.74 0 0 0 72.8 91.6l9 16a2.49 2.49 0 0 0 4.34 0l9-16A27.74 27.74 0 0 0 84 38.48zm8.51 48.84a2.5 2.5 0 0 0-1.24 1.08L84 101.26 76.69 88.4a2.5 2.5 0 0 0-1.24-1.08 22.75 22.75 0 1 1 17 0zm0 0"/><path class="cls-1" d="M84 109.18a2.87 2.87 0 0 1-2.49-1.45l-9-15.86a28.09 28.09 0 1 1 22.92 0l-9 15.86a2.87 2.87 0 0 1-2.43 1.45zm0-70.34a27.38 27.38 0 0 0-11.09 52.42h.11l.06.1 9 16a2.13 2.13 0 0 0 3.71 0l9.09-16.06h.11A27.38 27.38 0 0 0 84 38.84zM84 102l-7.63-13.42a2.13 2.13 0 0 0-1.06-.93 23.11 23.11 0 1 1 17.3 0 2.15 2.15 0 0 0-1.06.93zm0-58.17A22.39 22.39 0 0 0 75.59 87 2.87 2.87 0 0 1 77 88.22l7 12.3 7-12.3A2.88 2.88 0 0 1 92.34 87 22.39 22.39 0 0 0 84 43.83z"/><path class="cls-1" d="M84 55.59a10.48 10.48 0 1 0 10.44 10.47A10.49 10.49 0 0 0 84 55.59zm0 16a5.49 5.49 0 1 1 5.49-5.49A5.49 5.49 0 0 1 84 71.55zm0 0"/><path class="cls-1" d="M84 76.9a10.84 10.84 0 1 1 10.8-10.84A10.85 10.85 0 0 1 84 76.9zm0-21a10.11 10.11 0 1 0 10.08 10.16A10.12 10.12 0 0 0 84 56zm0 16a5.85 5.85 0 1 1 5.85-5.85A5.86 5.86 0 0 1 84 71.92zm0-11a5.12 5.12 0 1 0 5.12 5.12A5.13 5.13 0 0 0 84 60.94zM109.42 86.32a32.76 32.76 0 0 1-3.51 3.74c14.74 3.4 23.72 10 23.72 16.28 0 9-18.35 18.62-45.67 18.62s-45.66-9.63-45.66-18.62c0-6.29 9-12.88 23.72-16.28a32.76 32.76 0 0 1-3.51-3.74c-14.89 4-24.71 11.37-24.71 20 0 13 22 23.12 50.17 23.12s50.17-10.15 50.17-23.12c-.01-8.63-9.83-16.03-24.72-20z"/><path class="cls-1" d="M84 129.82c-28.33 0-50.53-10.31-50.53-23.48 0-8.59 9.34-16.2 25-20.37l.23-.06.15.19a32.55 32.55 0 0 0 3.47 3.69l.51.47-.68.16c-14 3.24-23.44 9.63-23.44 15.93 0 8.82 18.2 18.25 45.3 18.25s45.3-9.44 45.3-18.25c0-6.29-9.42-12.69-23.44-15.93l-.68-.16.51-.47a32.55 32.55 0 0 0 3.47-3.69l.15-.19.23.06c15.64 4.17 25 11.78 25 20.37-.05 13.16-22.25 23.48-50.55 23.48zM58.37 86.73c-15.17 4.09-24.21 11.41-24.21 19.6 0 12.76 21.88 22.75 49.8 22.75s49.8-10 49.8-22.75c0-8.2-9-15.52-24.21-19.6a33.32 33.32 0 0 1-2.89 3.13c14.2 3.4 23.34 9.84 23.34 16.48 0 4.68-4.67 9.42-12.81 13-8.72 3.85-20.52 6-33.23 6s-24.5-2.12-33.23-6c-8.14-3.59-12.81-8.33-12.81-13 0-6.64 9.13-13.07 23.33-16.48a33.32 33.32 0 0 1-2.88-3.13z"/></g></svg>