<svg xmlns="http://www.w3.org/2000/svg" viewBox="0 0 40 40" width="24" height="24"><path d="M4.77 37.5c-1.25 0-2.27-1.02-2.27-2.27V4.77c0-1.25 1.02-2.27 2.27-2.27h30.46c1.25 0 2.27 1.02 2.27 2.27v30.46c0 1.25-1.02 2.27-2.27 2.27z" fill="#1a75bb"/><path d="M35.23 3c.977 0 1.77.793 1.77 1.77v30.46A1.77 1.77 0 0 1 35.23 37H4.77A1.77 1.77 0 0 1 3 35.23V4.77C3 3.793 3.793 3 4.77 3h30.46m0-1H4.77A2.767 2.767 0 0 0 2 4.77v30.46A2.767 2.767 0 0 0 4.77 38h30.46A2.767 2.767 0 0 0 38 35.23V4.77A2.767 2.767 0 0 0 35.23 2z"/><path d="M11 20.055l5.965 5.965 13.422-13.422" fill="#1a75bb" stroke-width="3" stroke="#e6e6e6" stroke-miterlimit="10"/></svg>