<svg xmlns="http://www.w3.org/2000/svg" viewBox="0 0 23.64 22.12"><defs><style>.cls-1{fill:#3d3d3d;stroke:#3d3d3d;stroke-miterlimit:10;stroke-width:.5px}</style></defs><title>SSB_Assets_GlobalAsset 22</title><g id="Layer_2" data-name="Layer 2"><g id="Layer_1-2" data-name="Layer 1"><path class="cls-1" d="M12.22 13.9a1.06 1.06 0 0 0 0-2.12L7.49 8.26l3.68 4.64a1.07 1.07 0 0 0 1.05 1zm0 0"/><path class="cls-1" d="M11.82.25A11.64 11.64 0 0 0 .25 12a11.79 11.79 0 0 0 2 6.51h1.46l2-1.77-1-1.13-1.79 1.6A10.44 10.44 0 0 1 1.52 12v-.27h2.3v-1.52H1.67a10.38 10.38 0 0 1 2.17-4.84L5.45 7l1-1-1.59-1.71a10.18 10.18 0 0 1 6-2.71v2.68h1.44V1.55a10.2 10.2 0 0 1 6.62 2.87l-1.67 1.7 1 1 1.63-1.65a10.51 10.51 0 0 1 2 4.69h-2.15v1.54h2.38v.27a10.49 10.49 0 0 1-1.39 5.22L19 15.41l-1 1.05 1.95 2h1.57a11.8 11.8 0 0 0 2-6.51A11.64 11.64 0 0 0 11.82.25zm0 0M6.56 19.12h10.43v2.75H6.56z"/></g></g></svg>