<svg xmlns="http://www.w3.org/2000/svg" viewBox="0 0 36.62 46.44"><defs><style>.cls-1{fill:#3d3d3d}</style></defs><title>KIL_Website_AssetsAsset 4</title><g id="Layer_2" data-name="Layer 2"><g id="Layer_1-2" data-name="Layer 1"><path class="cls-1" d="M18.31 0a18.31 18.31 0 0 0-7.39 35.06l6 10.54a1.65 1.65 0 0 0 2.87 0l6-10.54A18.31 18.31 0 0 0 18.31 0zm5.62 32.24a1.65 1.65 0 0 0-.82.72l-4.8 8.49-4.8-8.45a1.65 1.65 0 0 0-.82-.72 15 15 0 1 1 11.24 0zm0 0"/><path class="cls-1" d="M18.31 11.3a6.92 6.92 0 1 0 6.92 6.92 6.92 6.92 0 0 0-6.92-6.92zm0 10.54a3.62 3.62 0 1 1 3.62-3.62 3.63 3.63 0 0 1-3.62 3.62zm0 0"/></g></g></svg>