<svg xmlns="http://www.w3.org/2000/svg" viewBox="0 0 39.03 21.25"><defs><style>.cls-1{fill:#3d3d3d}</style></defs><title>SSB_Website_SVG_Icons_Asset 31</title><g id="Layer_2" data-name="Layer 2"><g id="Layer_1-2" data-name="Layer 1"><path class="cls-1" d="M19.6 12.17C8.87 12.17.6 2.22.25 1.8A1.1 1.1 0 0 1 2 .4C2 .5 9.93 10 19.6 10S37 .51 37.08.41a1.1 1.1 0 0 1 1.54-.17 1.11 1.11 0 0 1 .17 1.55c-.34.42-8.45 10.38-19.19 10.38zM19.52 21.25a1.1 1.1 0 0 1-1.1-1.1v-4.83a1.1 1.1 0 0 1 2.2 0v4.83a1.1 1.1 0 0 1-1.1 1.1zM6.26 18a1.1 1.1 0 0 1-1-1.65l2.42-4.19a1.1 1.1 0 1 1 1.9 1.1l-2.37 4.21a1.1 1.1 0 0 1-.95.53zM32.77 18a1.1 1.1 0 0 1-1-.55l-2.37-4.17a1.1 1.1 0 0 1 1.91-1.1l2.41 4.19a1.1 1.1 0 0 1-.95 1.63z"/></g></g></svg>