<svg xmlns="http://www.w3.org/2000/svg" viewBox="0 0 407.88 93.41"><defs><style>.cls-1{fill:#231f20}.cls-2{fill:#d1232a}.cls-3{fill:#25408e}.cls-4{fill:#3fac49}.cls-5{fill:#1a75bb}</style></defs><title>KIL_LogoAsset 3</title><g id="Layer_2" data-name="Layer 2"><g id="Layer_1-2" data-name="Layer 1"><path class="cls-1" d="M76.3 14.58a8.62 8.62 0 0 0-.85-3.66C73.32 6.28 71.8 6 68.25 9.49L42.77 34.57c-3.3 3.24-3.28 5.8.08 9.1Q56.41 57 70 70.38c1.2 1.23 3.41 2.62 1.42 4.62s-3.51-.14-4.84-1.45C57.52 64.64 51 60.31 42 51.42c-3-2.92-4.88-3.36-7.5-1.39 0 0 20.88 18.23 30.32 27.45C68.76 81.36 74.67 80 76 75c.74-2.78-.47-4.91-2.4-6.81Q63.13 57.92 52.67 47.61c-2.37-2.33-4.71-4.68-7.11-7-1.09-1-1.38-1.85-.1-3.1 8.24-8 16.41-16.1 24.6-24.16.4-.39.73-1.15 1.4-.87s.6 1 .69 1.56c.43 2.82-1 4.86-2.89 6.71l-16 15.77a16 16 0 0 0-1.26 1.3 1.82 1.82 0 0 0 .11 2.72 1.9 1.9 0 0 0 2.77 0c1.68-1.56 3.31-3.19 5-4.8 4.24-4.18 8.5-8.35 12.71-12.57a11.44 11.44 0 0 0 3.75-8.6"/><path class="cls-1" d="M24.41 44.62c4.53 0 4.17 1.48 4.17 6v21c0 1.69-.56 4.14 2.19 4.15 2.91 0 2.32-2.48 2.32-4.28V55.06c0-4 1-5.63 4.19-6 0 0-.16 11.25-.21 24 0 5.35-5 8.43-9.45 5.9-2.46-1.41-3.12-3.7-3.11-6.32"/><path class="cls-2" d="M40.89 7.12v23.19l24.7-23.19h-24.7z"/><path class="cls-3" d="M40.99 80.17V61.13L60.9 80.17H40.99z"/><path class="cls-4" d="M56.55 44.27l17.66-16.85v33.71L56.55 44.27z"/><path class="cls-1" d="M5 12.72l1.59 1.57a.91.91 0 0 0 .64.26l17.23 2.06v-4.27L7.2 10.28a.91.91 0 0 0-.64.26L5 12.11a.42.42 0 0 0 0 .61m-4-2.53L4.23 7a3 3 0 0 1 2.11-.9l18.09 2.06v-1a3.87 3.87 0 1 1 4.18 0v10.13l6.72 1.55a1.83 1.83 0 0 1 1.61 1l1.35 2.46a1.84 1.84 0 0 1 0 1.76l-1.35 2.46a1.83 1.83 0 0 1-1.61 1l-6.72-1.55v20.5a2.09 2.09 0 0 1-4.18 0V20.8L6.34 18.74a3 3 0 0 1-2.11-.87l-3.3-3.23a3.11 3.11 0 0 1 0-4.45"/><path class="cls-1" d="M9.09 33.18l1.59 1.57a.91.91 0 0 0 .64.26l13.11-.52v-4.27l-13.11.52a.91.91 0 0 0-.64.26l-1.59 1.57a.42.42 0 0 0 0 .61m-4-2.53l3.29-3.23a3 3 0 0 1 2.11-.87l14-.52v12.65l-14 .52a3 3 0 0 1-2.11-.87L5.06 35.1a3.11 3.11 0 0 1 0-4.45"/><path class="cls-5" d="M5 12.72l1.59 1.57a.91.91 0 0 0 .64.26l17.23 2.06v-4.27L7.2 10.28a.91.91 0 0 0-.64.26L5 12.11a.42.42 0 0 0 0 .61M9.09 33.18l1.59 1.57a.91.91 0 0 0 .64.26l13.11-.52v-4.27l-13.11.52a.91.91 0 0 0-.64.26l-1.59 1.57a.42.42 0 0 0 0 .61"/><path class="cls-1" d="M241.67 75.58h-3.89a11.87 11.87 0 0 1-8.33-3.27 11.29 11.29 0 0 1-2.53-3.55 10.49 10.49 0 0 1-.91-4.38V44.73h12.68a2.21 2.21 0 0 0 1.53-.55 1.93 1.93 0 0 0 0-2.84 2.23 2.23 0 0 0-1.53-.55H226V21.85a1.82 1.82 0 0 0-.62-1.42 2.12 2.12 0 0 0-1.45-.55 2.39 2.39 0 0 0-1.57.55 1.77 1.77 0 0 0-.66 1.42v42.53a14.25 14.25 0 0 0 1.3 5.91 14.87 14.87 0 0 0 3.44 4.81 16.47 16.47 0 0 0 11.39 4.42h3.89a2.11 2.11 0 0 0 1.45-.55 1.93 1.93 0 0 0 0-2.84 2.12 2.12 0 0 0-1.45-.55m-26.89-32.82a1.82 1.82 0 0 0-.62-1.42 2.23 2.23 0 0 0-1.53-.55 2.08 2.08 0 0 0-1.49.55 1.87 1.87 0 0 0-.58 1.42V77.4a1.82 1.82 0 0 0 2.07 2.05 2.23 2.23 0 0 0 1.53-.55 1.91 1.91 0 0 0 .62-1.5zm-.62-7.46a2 2 0 0 0 .62-1.54 1.82 1.82 0 0 0-.62-1.42 2.23 2.23 0 0 0-1.53-.55 2.08 2.08 0 0 0-1.49.55 1.87 1.87 0 0 0-.58 1.42 2.1 2.1 0 0 0 .58 1.54 2 2 0 0 0 1.49.59 2.14 2.14 0 0 0 1.53-.59m-33.67 29.08a10.49 10.49 0 0 1-.91 4.38 11.31 11.31 0 0 1-2.53 3.55 11.87 11.87 0 0 1-8.33 3.27 11.74 11.74 0 0 1-4.52-.87 11.38 11.38 0 0 1-3.69-2.41 11.59 11.59 0 0 1-2.48-3.55 10.47 10.47 0 0 1-.91-4.38v-8.52a10.63 10.63 0 0 1 .87-4.18 10.81 10.81 0 0 1 2.53-3.67 11.14 11.14 0 0 1 8.2-3.31 11.7 11.7 0 0 1 8.37 3.31 12 12 0 0 1 2.49 3.63 10.22 10.22 0 0 1 .91 4.18zm-23-19.17a.37.37 0 0 1-.21.2.19.19 0 0 0-.13.2v-2.85a1.81 1.81 0 0 0-.62-1.42 2.4 2.4 0 0 0-3.07 0 1.82 1.82 0 0 0-.62 1.42v48.68a1.82 1.82 0 0 0 .62 1.42 2.41 2.41 0 0 0 3.07 0 1.81 1.81 0 0 0 .62-1.42V74.79a14.43 14.43 0 0 0 5.18 3.51 16.93 16.93 0 0 0 6.42 1.22 16.29 16.29 0 0 0 6.2-1.18 16.51 16.51 0 0 0 5.1-3.23 14.88 14.88 0 0 0 3.44-4.81 14.27 14.27 0 0 0 1.24-5.92v-8.53a14.75 14.75 0 0 0-1.16-5.76A13.48 13.48 0 0 0 180 45.2a13.82 13.82 0 0 0-5.1-3.31 17.41 17.41 0 0 0-6.17-1.1 15.73 15.73 0 0 0-11.27 4.42m-14.78 12.54h-23.37v-1.9a10.19 10.19 0 0 1 .91-4.18 11.32 11.32 0 0 1 2.57-3.67 12.11 12.11 0 0 1 3.77-2.45 11.76 11.76 0 0 1 4.52-.87 11.14 11.14 0 0 1 8.2 3.31 10.8 10.8 0 0 1 2.53 3.63 10.6 10.6 0 0 1 .87 4.18zm-17.73-15.86a14.67 14.67 0 0 0-5.14 3.31 13.45 13.45 0 0 0-3.56 4.89 14.72 14.72 0 0 0-1.16 5.76v8.52a14.25 14.25 0 0 0 1.24 5.92 14.86 14.86 0 0 0 3.44 4.81 16.48 16.48 0 0 0 5.1 3.23 16.28 16.28 0 0 0 6.21 1.18h9a2.07 2.07 0 0 0 1.52-.51 2 2 0 0 0 0-2.84 2.08 2.08 0 0 0-1.49-.55h-9a11.87 11.87 0 0 1-8.33-3.27 11.29 11.29 0 0 1-2.53-3.55 10.47 10.47 0 0 1-.91-4.38v-2.6h25.52a2.14 2.14 0 0 0 1.53-.59 1.94 1.94 0 0 0 .62-1.46v-3.91a14.31 14.31 0 0 0-1.2-5.76 14.92 14.92 0 0 0-3.44-4.89 15.73 15.73 0 0 0-11.27-4.42 17.07 17.07 0 0 0-6.13 1.1m-18.58 15.87H83v-1.9a10.22 10.22 0 0 1 .91-4.18 11.32 11.32 0 0 1 2.6-3.67 12.11 12.11 0 0 1 3.77-2.45 11.76 11.76 0 0 1 4.52-.87A11.14 11.14 0 0 1 103 48a10.81 10.81 0 0 1 2.53 3.63 10.63 10.63 0 0 1 .87 4.18zM88.66 41.89a14.68 14.68 0 0 0-5.14 3.31A13.46 13.46 0 0 0 80 50.09a14.72 14.72 0 0 0-1.16 5.76v8.52A14.25 14.25 0 0 0 80 70.29a14.83 14.83 0 0 0 3.44 4.81 16.48 16.48 0 0 0 5.1 3.23 16.28 16.28 0 0 0 6.21 1.18h9a2.07 2.07 0 0 0 1.49-.55 2 2 0 0 0 0-2.84 2.08 2.08 0 0 0-1.49-.55h-9a11.87 11.87 0 0 1-8.33-3.27 11.29 11.29 0 0 1-2.53-3.55 10.49 10.49 0 0 1-.89-4.37v-2.6h25.52a2.14 2.14 0 0 0 1.53-.59 1.94 1.94 0 0 0 .62-1.46v-3.88a14.31 14.31 0 0 0-1.2-5.76 14.92 14.92 0 0 0-3.44-4.89 15.74 15.74 0 0 0-11.27-4.42 17.07 17.07 0 0 0-6.13 1.1M404.19 20.35a1.81 1.81 0 0 0-.62 1.42V77.4a1.9 1.9 0 0 0 .62 1.5 2.34 2.34 0 0 0 1.61.55 2.17 2.17 0 0 0 1.41-.55 1.85 1.85 0 0 0 .66-1.5V21.77a1.76 1.76 0 0 0-.66-1.42 2.17 2.17 0 0 0-1.41-.55 2.34 2.34 0 0 0-1.61.55m-16.43 54.56a8.68 8.68 0 0 1-3.36.67h-4.06a8.89 8.89 0 0 1-3.44-.67 8.59 8.59 0 0 1-2.78-1.82 8.94 8.94 0 0 1-1.86-2.68 7.77 7.77 0 0 1-.7-3.27 7.9 7.9 0 0 1 2.53-6 8.72 8.72 0 0 1 6.25-2.41h9a9.54 9.54 0 0 0 1.95-.2 5.06 5.06 0 0 0 1.86-.83v9.39a8 8 0 0 1-2.65 6 9 9 0 0 1-2.77 1.78m-3.44-34.13h-11.82a2.34 2.34 0 0 0-1.61.55 1.93 1.93 0 0 0 0 2.84 2.34 2.34 0 0 0 1.61.55h15.66a5 5 0 0 1 2 .39 5.38 5.38 0 0 1 1.57 1 4.7 4.7 0 0 1 1.49 3.55V51a3.59 3.59 0 0 1-1 2.6 4.1 4.1 0 0 1-2.82 1h-9a13.67 13.67 0 0 0-5.05.95 12.93 12.93 0 0 0-4.22 2.68 13.29 13.29 0 0 0-2.82 4.06 11.66 11.66 0 0 0-1 4.77 11.45 11.45 0 0 0 1 4.85 12.29 12.29 0 0 0 2.82 3.91 13.88 13.88 0 0 0 4.14 2.64 13.08 13.08 0 0 0 5.1 1h4.06a12.78 12.78 0 0 0 8.78-3.23v1.26a1.76 1.76 0 0 0 .66 1.42 2.38 2.38 0 0 0 1.57.55 2.08 2.08 0 0 0 1.49-.55 1.87 1.87 0 0 0 .58-1.42V49.7a8.48 8.48 0 0 0-2.73-6.39 8.71 8.71 0 0 0-3.07-1.89 10.37 10.37 0 0 0-3.56-.63zM355 44.73h7.46a2.23 2.23 0 0 0 1.53-.55 1.93 1.93 0 0 0 0-2.84 2.23 2.23 0 0 0-1.53-.55H355a16.5 16.5 0 0 0-6.3 1.18 16 16 0 0 0-5.05 3.23 15.19 15.19 0 0 0-3.35 4.8 14.07 14.07 0 0 0-1.24 5.84v8.52a14.26 14.26 0 0 0 1.24 5.92 15.15 15.15 0 0 0 3.4 4.81 16 16 0 0 0 5.05 3.24 16.5 16.5 0 0 0 6.3 1.18h7.46A2.23 2.23 0 0 0 364 79a1.93 1.93 0 0 0 0-2.84 2.23 2.23 0 0 0-1.53-.55H355a12 12 0 0 1-4.56-.87 11.3 11.3 0 0 1-3.73-2.41 11.64 11.64 0 0 1-2.49-3.55 10.47 10.47 0 0 1-.91-4.38v-8.55a10.28 10.28 0 0 1 .91-4.3 11.62 11.62 0 0 1 2.54-3.55 11.28 11.28 0 0 1 3.73-2.41 12.08 12.08 0 0 1 4.56-.87m-40.63 30a11.32 11.32 0 0 1-3.73-2.41 11.64 11.64 0 0 1-2.49-3.55 10.49 10.49 0 0 1-.91-4.38v-8.53a10.62 10.62 0 0 1 .87-4.18 11.39 11.39 0 0 1 2.45-3.67 12.08 12.08 0 0 1 8.39-3.27 11.6 11.6 0 0 1 8.26 3.27 11.36 11.36 0 0 1 2.57 3.63 10.21 10.21 0 0 1 .91 4.18v8.52a10.13 10.13 0 0 1-1 4.38 11.94 11.94 0 0 1-6.3 6 11.73 11.73 0 0 1-4.51.87 12.05 12.05 0 0 1-4.56-.87m10.69-32.82a17.07 17.07 0 0 0-6.13-1.1 17.4 17.4 0 0 0-6.17 1.1 13.79 13.79 0 0 0-5.1 3.31 14.9 14.9 0 0 0-3.44 4.89 14.26 14.26 0 0 0-1.2 5.76v8.52a14.26 14.26 0 0 0 1.24 5.92 15.15 15.15 0 0 0 3.4 4.81 16 16 0 0 0 5.05 3.24 16.28 16.28 0 0 0 6.29 1.19 16.07 16.07 0 0 0 6.13-1.18 16.54 16.54 0 0 0 5.1-3.24 14.87 14.87 0 0 0 3.44-4.81 14.26 14.26 0 0 0 1.24-5.92v-8.53a14.31 14.31 0 0 0-1.2-5.76 14.94 14.94 0 0 0-3.44-4.89 14.68 14.68 0 0 0-5.14-3.31m-22.92 33.53H270V21.85a2 2 0 0 0-2.07-2.05 2.24 2.24 0 0 0-1.62.59 1.94 1.94 0 0 0-.62 1.46v55.7a1.81 1.81 0 0 0 .61 1.45 2.34 2.34 0 0 0 1.62.55h34.3a2.39 2.39 0 0 0 1.57-.55 1.76 1.76 0 0 0 .66-1.42 2 2 0 0 0-.66-1.5 2.21 2.21 0 0 0-1.57-.63"/></g></g></svg>