<svg xmlns="http://www.w3.org/2000/svg" viewBox="0 0 96.78 25.49"><defs><style>.cls-1{fill:#b1b1bb}</style></defs><title>SSB_Webite_Assets_4th_set_Asset 2</title><g id="Layer_2" data-name="Layer 2"><g id="Layer_1-2" data-name="Layer 1"><path class="cls-1" d="M95.09 10.62a9.32 9.32 0 0 1-1.8.84 8.5 8.5 0 0 1-2.13.53c-.31.06-.63.1-1 .13-3 .26-5.53-.39-7-1.76v.16a2.62 2.62 0 0 0 .64 1.66c1.19 1.36 3.46 2.1 6.11 2.14a10.69 10.69 0 0 0 4.6-.91 4.74 4.74 0 0 0 1.54-1.13 2.49 2.49 0 0 0 .67-1.65 2.33 2.33 0 0 0-.27-1.1 5.94 5.94 0 0 1-1.36 1.09zm-5.2-1.88c-2.79.21-5.2-.31-6.69-1.5a2.59 2.59 0 0 0 .63 1.51c1.19 1.36 3.46 2.09 6.11 2.14a10.54 10.54 0 0 0 4.6-.92 4.82 4.82 0 0 0 1.54-1.12 2.49 2.49 0 0 0 .67-1.65 2.45 2.45 0 0 0-.4-1.34c-.35.51-2.04 2.54-6.46 2.88zM90 7.48a10.69 10.69 0 0 0 4.6-.91 4.82 4.82 0 0 0 1.54-1.12 2.51 2.51 0 0 0 .67-1.65 2.56 2.56 0 0 0-.64-1.66C95 .78 92.68 0 90 0a10.69 10.69 0 0 0-4.6.91A5 5 0 0 0 83.89 2a2.59 2.59 0 0 0-.67 1.65 2.51 2.51 0 0 0 .64 1.66C85 6.7 87.32 7.44 90 7.48zm-5.18-5.13c.64-.79 2.64-1.55 5-1.51a9.14 9.14 0 0 1 3.92.82 3.26 3.26 0 0 1 1 .77 1 1 0 0 1 .26.67 1 1 0 0 1-.29.66c-.64.78-2.64 1.55-5 1.51a9.11 9.11 0 0 1-3.91-.83 3.14 3.14 0 0 1-1-.76 1 1 0 0 1-.28-.68 1 1 0 0 1 .3-.65zM24.27 9.23a3.32 3.32 0 0 0-2.66-1.08h-5.23l-.39 2h5.23a1.55 1.55 0 0 1 1.29.58 1.63 1.63 0 0 1 .3 1.41l-.07.33v.24h-4.88a4.81 4.81 0 0 0-3.11 1.12A4.74 4.74 0 0 0 13 16.65v.21a3.2 3.2 0 0 0 .56 2.84 3.24 3.24 0 0 0 2.65 1.12H23L24.87 12a3.08 3.08 0 0 0-.6-2.77zm-2.84 9.61h-4.85a1.63 1.63 0 0 1-1.31-.57 1.57 1.57 0 0 1-.3-1.41v-.21a2.32 2.32 0 0 1 .87-1.41 2.46 2.46 0 0 1 1.55-.57h4.83zM36.05 8.15l-2.22 10.66h-5a1.63 1.63 0 0 1-1.32-.57 1.57 1.57 0 0 1-.3-1.41L29 8.15h-2l-1.8 8.68a3.16 3.16 0 0 0 .57 2.84 3.28 3.28 0 0 0 2.66 1.13h5l-.16.73a2.48 2.48 0 0 1-.9 1.39 2.35 2.35 0 0 1-1.52.59H24l-.41 2h6.85a4.76 4.76 0 0 0 3.08-1.15 4.87 4.87 0 0 0 1.77-2.81l2.79-13.4zM57.11 20.82h-6.86a3.23 3.23 0 0 1-2.64-1.12 3.17 3.17 0 0 1-.56-2.84l.05-.21a4.72 4.72 0 0 1 1.73-2.84A4.84 4.84 0 0 1 52 12.69h4.8v-.24l.08-.33a1.63 1.63 0 0 0-.3-1.41 1.55 1.55 0 0 0-1.29-.58h-5.62l.39-2h5.64a3.32 3.32 0 0 1 2.66 1.08A3.08 3.08 0 0 1 59 12zm-1.59-2l.83-4.17h-4.82a2.46 2.46 0 0 0-1.55.57 2.32 2.32 0 0 0-.87 1.41v.21a1.53 1.53 0 0 0 .29 1.41 1.65 1.65 0 0 0 1.32.57zM70.26 17.43A3.94 3.94 0 0 1 68.51 20a5.13 5.13 0 0 1-3 .86h-6.75l.42-2H66c1.34 0 2.1-.48 2.29-1.46l.11-.47c.2-1-.36-1.46-1.7-1.46h-3a3.6 3.6 0 0 1-2.6-.86 2.54 2.54 0 0 1-.71-2.58l.11-.47A3.94 3.94 0 0 1 62.15 9a5.21 5.21 0 0 1 3-.86h6.81l-.39 2h-6.84c-1.34 0-2.11.49-2.32 1.46l-.1.47c-.19 1 .38 1.46 1.72 1.46h3a3.68 3.68 0 0 1 2.61.86 2.58 2.58 0 0 1 .72 2.61zM79.42 20.8h-3.18a3.28 3.28 0 0 1-2.66-1.13 3.16 3.16 0 0 1-.58-2.84l1.4-6.8h-1.24l.45-2h1.25l.94-4.54h2L76.89 8h4.22l-.44 2h-4.22L75 16.83a1.56 1.56 0 0 0 .29 1.41 1.58 1.58 0 0 0 1.3.57h3.18zM15.16 9.31a4.69 4.69 0 0 1-1.73 2.77 4.71 4.71 0 0 1-3 1.13H3.55L2 20.82H0L3.57 3.65h8.82A3.11 3.11 0 0 1 15 4.78a3.21 3.21 0 0 1 .57 2.78zm-2 0l.36-1.75A1.54 1.54 0 0 0 12 5.61H5.14L4 11.26h6.8a2.33 2.33 0 0 0 1.51-.57 2.43 2.43 0 0 0 .88-1.38z"/><path class="cls-1" d="M53.63 5.45h-8.3a2.6 2.6 0 0 0-2.46 2l-.78 3.8h5.18l-.41 2H41.7l-1.6 7.61h-2l2.75-13.43a4.85 4.85 0 0 1 1.77-2.84 4.85 4.85 0 0 1 3.12-1.13h8.31z"/></g></g></svg>