<svg xmlns="http://www.w3.org/2000/svg" viewBox="0 0 39 37.09"><defs><style>.cls-1{fill:#1a75bb}</style></defs><title>SSB_Website_Icon_Assets_Asset 33</title><g id="Layer_2" data-name="Layer 2"><path class="cls-1" d="M19.5 4.52l4.23 8.57.47.95 1 .15 9.46 1.37-6.85 6.68-.71.76.18 1 1.62 9.42L20.43 29l-.93-.48-.93.48-8.47 4.43L11.72 24l.18-1-.75-.73-6.85-6.71 9.46-1.37 1-.15.47-.95 4.27-8.57m0-4.52l-6 12.21L0 14.17l9.75 9.5-2.3 13.42 12.05-6.34 12.05 6.34-2.3-13.42 9.75-9.5-13.47-2L19.5 0z" id="Layer_1-2" data-name="Layer 1"/></g></svg>