<svg xmlns="http://www.w3.org/2000/svg" viewBox="0 0 50 50" width="24" height="24"><path fill="#FFF" d="M24.875 0a1 1 0 0 0-.813.625l-6.25 15.5-16.656 1.156c-.398.04-.734.309-.86.692-.12.379-.003.797.298 1.058L13.406 29.75 9.344 45.969c-.102.394.05.812.379 1.054a1.01 1.01 0 0 0 1.12.04L25 38.187l14.156 8.876c.348.214.79.199 1.121-.04.328-.242.48-.66.38-1.054L36.593 29.75l12.812-10.719c.301-.261.418-.68.297-1.058a1.006 1.006 0 0 0-.86-.692l-16.656-1.156-6.25-15.5A.994.994 0 0 0 24.875 0zM25 3.719l5.531 13.75c.145.36.489.605.875.625l14.782 1-11.376 9.531a1 1 0 0 0-.312 1.031l3.625 14.407-12.594-7.907a1.002 1.002 0 0 0-1.062 0l-12.594 7.907L15.5 29.655a1 1 0 0 0-.313-1.031L3.813 19.094l14.78-1c.387-.02.731-.266.876-.625z"/></svg>