<svg xmlns="http://www.w3.org/2000/svg" viewBox="0 0 31.12 31.12"><defs><style>.cls-1{fill:#1a75bb}</style></defs><title>KIL_Website_AssetsAsset 10</title><g id="Layer_2" data-name="Layer 2"><g id="Layer_1-2" data-name="Layer 1"><path class="cls-1" d="M15.56 4A11.56 11.56 0 1 1 4 15.56 11.56 11.56 0 0 1 15.56 4m0-4a15.56 15.56 0 1 0 15.56 15.56A15.58 15.58 0 0 0 15.56 0z"/><path class="cls-1" d="M13.42 21.07a1.2 1.2 0 0 1-.85-.35L8.3 16.44a1.21 1.21 0 0 1 1.7-1.7l3.42 3.42 7.69-7.69a1.21 1.21 0 0 1 1.71 1.71l-8.54 8.54a1.2 1.2 0 0 1-.86.35z"/></g></g></svg>