<svg xmlns="http://www.w3.org/2000/svg" viewBox="0 0 189.89 53.21"><defs><style>.cls-1{fill:#034ea2;}.cls-2{fill:#fff100;}</style></defs><title>SSB_Website_Icon_Assets_Asset 38</title><g id="Layer_2" data-name="Layer 2"><g id="Layer_1-2" data-name="Layer 1"><rect class="cls-1" x="98.33" width="91.56" height="53.21"/><polygon class="cls-2" points="142.3 11.59 144.09 10.36 145.88 11.59 145.2 9.61 147.02 8.38 144.77 8.38 144.09 6.37 143.4 8.38 141.16 8.38 142.98 9.61 142.3 11.59"/><polygon class="cls-2" points="133.03 13.94 134.82 12.71 136.61 13.94 135.93 11.95 137.75 10.72 135.5 10.72 134.82 8.7 134.13 10.72 131.89 10.72 133.71 11.95 133.03 13.94"/><polygon class="cls-2" points="128.04 15.1 127.35 17.11 125.11 17.11 126.93 18.34 126.25 20.33 128.04 19.1 129.83 20.33 129.15 18.34 130.97 17.11 128.72 17.11 128.04 15.1"/><polygon class="cls-2" points="125.55 27.8 127.34 29.03 126.66 27.04 128.48 25.81 126.24 25.81 125.55 23.8 124.86 25.82 122.62 25.81 124.44 27.04 123.76 29.03 125.55 27.8"/><polygon class="cls-2" points="128.72 34.55 128.04 32.53 127.35 34.55 125.11 34.55 126.93 35.77 126.25 37.76 128.04 36.53 129.83 37.76 129.15 35.77 130.97 34.55 128.72 34.55"/><polygon class="cls-2" points="135.52 40.93 134.83 38.92 134.15 40.94 131.91 40.93 133.72 42.16 133.04 44.15 134.83 42.92 136.62 44.15 135.94 42.16 137.76 40.93 135.52 40.93"/><polygon class="cls-2" points="144.78 43.25 144.09 41.24 143.4 43.25 141.16 43.25 142.98 44.48 142.3 46.47 144.09 45.24 145.88 46.47 145.2 44.48 147.02 43.25 144.78 43.25"/><polygon class="cls-2" points="154.03 40.93 153.35 38.92 152.66 40.94 150.42 40.93 152.24 42.16 151.56 44.15 153.35 42.92 155.14 44.15 154.45 42.16 156.27 40.93 154.03 40.93"/><polygon class="cls-2" points="160.83 34.55 160.14 32.53 159.45 34.55 157.21 34.55 159.03 35.77 158.35 37.76 160.14 36.53 161.93 37.76 161.25 35.77 163.07 34.55 160.83 34.55"/><polygon class="cls-2" points="165.53 25.79 163.29 25.79 162.6 23.78 161.91 25.79 159.67 25.79 161.49 27.02 160.81 29.01 162.6 27.77 164.39 29.01 163.71 27.02 165.53 25.79"/><polygon class="cls-2" points="158.35 20.3 160.14 19.07 161.93 20.3 161.25 18.31 163.07 17.09 160.83 17.09 160.14 15.07 159.45 17.09 157.21 17.09 159.03 18.31 158.35 20.3"/><polygon class="cls-2" points="153.37 8.71 152.69 10.72 150.44 10.72 152.26 11.95 151.58 13.94 153.37 12.71 155.16 13.94 154.48 11.95 156.3 10.72 154.06 10.72 153.37 8.71"/><path d="M19,28.71H7.53V36.8h13.7v5.79H0V10.15H21.25V16H7.53v7H19Z"/><path d="M52,10.15v21a10.85,10.85,0,0,1-3.7,8.72,14.32,14.32,0,0,1-9.65,3.16A14.47,14.47,0,0,1,29,39.9a10.8,10.8,0,0,1-3.72-8.72v-21h7.55v21a6.12,6.12,0,0,0,1.56,4.55,5.9,5.9,0,0,0,4.32,1.53A5.76,5.76,0,0,0,43,35.74a6.19,6.19,0,0,0,1.53-4.56v-21Z"/><path d="M64.56,30.16V42.59H57V10.15H68.32q5.64,0,8.93,2.61a8.59,8.59,0,0,1,3.3,7.13,7.1,7.1,0,0,1-1.32,4.32,9.51,9.51,0,0,1-3.91,2.94A7.21,7.21,0,0,1,79.6,30a8.7,8.7,0,0,1,1.31,4.91v2a12.56,12.56,0,0,0,.38,2.9,3.83,3.83,0,0,0,1.31,2.31v.45H74.83a3.63,3.63,0,0,1-1.16-2.43,21.38,21.38,0,0,1-.27-3.27v-2a4.84,4.84,0,0,0-1.22-3.55,4.91,4.91,0,0,0-3.59-1.22Zm0-5.79h3.81a5.17,5.17,0,0,0,3.47-1,3.71,3.71,0,0,0,1.2-3,4.29,4.29,0,0,0-1.23-3.2A4.78,4.78,0,0,0,68.32,16H64.56Z"/></g></g></svg>