<svg xmlns="http://www.w3.org/2000/svg" viewBox="0 0 189.89 53.17"><defs><style>.cls-1{fill:#fff;}.cls-2{fill:#d11d23;}.cls-3{fill:#00305c;}</style></defs><title>SSB_Website_Icon_Assets_Asset 37</title><g id="Layer_2" data-name="Layer 2"><g id="Layer_1-2" data-name="Layer 1"><rect class="cls-1" x="98.47" width="91.42" height="53.17"/><polyline class="cls-2" points="189.89 21.27 148.75 21.27 148.75 0 139.61 0 139.61 21.27 98.47 21.27 98.47 31.9 139.61 31.9 139.61 53.17 148.75 53.17 148.75 31.9 189.89 31.9"/><path class="cls-2" d="M159.42,35.45h6.81l23.66,13.76v4M128.94,17.72h-6.81L98.47,4V0Zm0,17.73h6.82L105.28,53.17H98.47Zm30.48-17.73H152.6L183.07,0h6.82Z"/><path class="cls-3" d="M98.47,35.45V47.23l20.25-11.78m71.17,0V47.23L169.64,35.45ZM98.47,17.72V5.94l20.25,11.78Zm91.42,0V5.94L169.64,17.72ZM136.56,53.17V37L108.69,53.17Zm15.24,0V37l27.87,16.21ZM136.56,0V16.21L108.69,0ZM151.8,0V16.21L179.67,0Z"/><path d="M26.24,38.32a13.45,13.45,0,0,1-4.77,3.5,18.49,18.49,0,0,1-7.9,1.45,13.38,13.38,0,0,1-9.81-3.7A12.84,12.84,0,0,1,0,30V23.2a13.08,13.08,0,0,1,3.66-9.58A12.69,12.69,0,0,1,13.1,9.9q6.21,0,9.39,2.77a9.25,9.25,0,0,1,3.06,7.59l0,.13H18.44a4.57,4.57,0,0,0-1.26-3.54,5.56,5.56,0,0,0-3.84-1.16,5.09,5.09,0,0,0-4.23,2.07,8.55,8.55,0,0,0-1.6,5.39V30A8.69,8.69,0,0,0,9.1,35.42a5.33,5.33,0,0,0,4.47,2.06,12.2,12.2,0,0,0,3.26-.34,5.23,5.23,0,0,0,1.88-.89V30.46H13v-5H26.24Z"/><path d="M30.76,42.8V10.37H41.39c4,0,7.16.74,9.41,2.24a7.47,7.47,0,0,1,3.38,6.67,7.92,7.92,0,0,1-1.07,4.11,6.67,6.67,0,0,1-3.34,2.71,6.66,6.66,0,0,1,4.28,2.58,7.6,7.6,0,0,1,1.4,4.52,8.46,8.46,0,0,1-3.19,7.17C50.14,42,47.09,42.8,43.13,42.8Zm7.53-18.91h3a7,7,0,0,0,4.05-.95,3.23,3.23,0,0,0,1.34-2.82,3.46,3.46,0,0,0-1.3-3,6.72,6.72,0,0,0-4-.95h-3.1Zm0,5V37h4.84a5.74,5.74,0,0,0,3.61-.95,3.47,3.47,0,0,0,1.2-2.9A4.26,4.26,0,0,0,46.88,30a4.93,4.93,0,0,0-3.49-1.14h-5.1Z"/><path d="M67.39,31.69V42.8H59.86V10.37H72.24q5.78,0,9.16,2.94A9.76,9.76,0,0,1,84.78,21a9.74,9.74,0,0,1-3.38,7.72Q78,31.69,72.24,31.69Zm0-5.8h4.85A4.92,4.92,0,0,0,76,24.55a4.79,4.79,0,0,0,1.3-3.47A5,5,0,0,0,76,17.54a4.89,4.89,0,0,0-3.76-1.38H67.39Z"/></g></g></svg>