<svg xmlns="http://www.w3.org/2000/svg" viewBox="0 0 189.89 53.21"><defs><style>.cls-1{fill:#fff;}.cls-2{fill:#be2033;}.cls-3{fill:#212f64;}</style></defs><title>SSB_Website_Icon_Assets_Asset 39</title><g id="Layer_2" data-name="Layer 2"><g id="Layer_1-2" data-name="Layer 1"><rect class="cls-1" x="97.76" width="92.13" height="53.18"/><rect class="cls-2" x="134.65" width="55.23" height="4.09"/><rect class="cls-2" x="134.65" y="8.05" width="55.23" height="4.09"/><rect class="cls-2" x="134.65" y="16.11" width="55.23" height="4.09"/><rect class="cls-2" x="134.65" y="24.04" width="55.23" height="4.09"/><rect class="cls-2" x="97.76" y="31.97" width="92.13" height="4.09"/><rect class="cls-2" x="97.76" y="40.46" width="92.13" height="4.09"/><rect class="cls-2" x="97.76" y="49.12" width="92.13" height="4.09"/><rect class="cls-3" x="97.76" width="36.98" height="28.04"/><polygon class="cls-1" points="99.43 2.38 100.51 2.38 100.9 1.14 101.34 2.38 102.41 2.38 101.6 3.19 101.9 4.42 100.92 3.73 100.01 4.42 100.28 3.19 99.43 2.38"/><polygon class="cls-1" points="105.49 2.38 106.57 2.38 106.96 1.14 107.4 2.38 108.47 2.38 107.65 3.19 107.95 4.42 106.98 3.73 106.06 4.42 106.33 3.19 105.49 2.38"/><polygon class="cls-1" points="111.76 2.38 112.84 2.38 113.23 1.14 113.67 2.38 114.73 2.38 113.92 3.19 114.22 4.42 113.25 3.73 112.33 4.42 112.6 3.19 111.76 2.38"/><polygon class="cls-1" points="117.82 2.38 118.89 2.38 119.29 1.14 119.72 2.38 120.79 2.38 119.98 3.19 120.28 4.42 119.3 3.73 118.39 4.42 118.66 3.19 117.82 2.38"/><polygon class="cls-1" points="123.92 2.38 124.99 2.38 125.39 1.14 125.82 2.38 126.89 2.38 126.08 3.19 126.38 4.42 125.4 3.73 124.49 4.42 124.76 3.19 123.92 2.38"/><polygon class="cls-1" points="130.14 2.38 131.22 2.38 131.61 1.14 132.05 2.38 133.12 2.38 132.31 3.19 132.61 4.42 131.63 3.73 130.72 4.42 130.99 3.19 130.14 2.38"/><polygon class="cls-1" points="102.46 5.33 103.54 5.33 103.93 4.09 104.37 5.33 105.44 5.33 104.63 6.15 104.92 7.38 103.95 6.69 103.04 7.38 103.3 6.15 102.46 5.33"/><polygon class="cls-1" points="108.52 5.33 109.59 5.33 109.99 4.09 110.43 5.33 111.49 5.33 110.68 6.15 110.98 7.38 110 6.69 109.09 7.38 109.36 6.15 108.52 5.33"/><polygon class="cls-1" points="114.79 5.33 115.86 5.33 116.26 4.09 116.7 5.33 117.76 5.33 116.95 6.15 117.25 7.38 116.28 6.69 115.36 7.38 115.63 6.15 114.79 5.33"/><polygon class="cls-1" points="120.84 5.33 121.92 5.33 122.32 4.09 122.75 5.33 123.82 5.33 123.01 6.15 123.31 7.38 122.33 6.69 121.42 7.38 121.69 6.15 120.84 5.33"/><polygon class="cls-1" points="126.94 5.33 128.02 5.33 128.41 4.09 128.85 5.33 129.92 5.33 129.11 6.15 129.41 7.38 128.43 6.69 127.52 7.38 127.79 6.15 126.94 5.33"/><polygon class="cls-1" points="99.43 7.94 100.51 7.94 100.9 6.7 101.34 7.94 102.41 7.94 101.6 8.75 101.9 9.99 100.92 9.3 100.01 9.99 100.28 8.75 99.43 7.94"/><polygon class="cls-1" points="105.49 7.94 106.57 7.94 106.96 6.7 107.4 7.94 108.47 7.94 107.65 8.75 107.95 9.99 106.98 9.3 106.06 9.99 106.33 8.75 105.49 7.94"/><polygon class="cls-1" points="111.76 7.94 112.84 7.94 113.23 6.7 113.67 7.94 114.73 7.94 113.92 8.75 114.22 9.99 113.25 9.3 112.33 9.99 112.6 8.75 111.76 7.94"/><polygon class="cls-1" points="117.82 7.94 118.89 7.94 119.29 6.7 119.72 7.94 120.79 7.94 119.98 8.75 120.28 9.99 119.3 9.3 118.39 9.99 118.66 8.75 117.82 7.94"/><polygon class="cls-1" points="123.92 7.94 124.99 7.94 125.39 6.7 125.82 7.94 126.89 7.94 126.08 8.75 126.38 9.99 125.4 9.3 124.49 9.99 124.76 8.75 123.92 7.94"/><polygon class="cls-1" points="130.14 7.94 131.22 7.94 131.61 6.7 132.05 7.94 133.12 7.94 132.31 8.75 132.61 9.99 131.63 9.3 130.72 9.99 130.99 8.75 130.14 7.94"/><polygon class="cls-1" points="102.46 10.9 103.54 10.9 103.93 9.66 104.37 10.9 105.44 10.9 104.63 11.71 104.92 12.95 103.95 12.26 103.04 12.95 103.3 11.71 102.46 10.9"/><polygon class="cls-1" points="108.52 10.9 109.59 10.9 109.99 9.66 110.43 10.9 111.49 10.9 110.68 11.71 110.98 12.95 110 12.26 109.09 12.95 109.36 11.71 108.52 10.9"/><polygon class="cls-1" points="114.79 10.9 115.86 10.9 116.26 9.66 116.7 10.9 117.76 10.9 116.95 11.71 117.25 12.95 116.28 12.26 115.36 12.95 115.63 11.71 114.79 10.9"/><polygon class="cls-1" points="120.84 10.9 121.92 10.9 122.32 9.66 122.75 10.9 123.82 10.9 123.01 11.71 123.31 12.95 122.33 12.26 121.42 12.95 121.69 11.71 120.84 10.9"/><polygon class="cls-1" points="126.94 10.9 128.02 10.9 128.41 9.66 128.85 10.9 129.92 10.9 129.11 11.71 129.41 12.95 128.43 12.26 127.52 12.95 127.79 11.71 126.94 10.9"/><polygon class="cls-1" points="99.43 13.6 100.51 13.6 100.9 12.36 101.34 13.6 102.41 13.6 101.6 14.41 101.9 15.65 100.92 14.96 100.01 15.65 100.28 14.41 99.43 13.6"/><polygon class="cls-1" points="105.49 13.6 106.57 13.6 106.96 12.36 107.4 13.6 108.47 13.6 107.65 14.41 107.95 15.65 106.98 14.96 106.06 15.65 106.33 14.41 105.49 13.6"/><polygon class="cls-1" points="111.76 13.6 112.84 13.6 113.23 12.36 113.67 13.6 114.73 13.6 113.92 14.41 114.22 15.65 113.25 14.96 112.33 15.65 112.6 14.41 111.76 13.6"/><polygon class="cls-1" points="117.82 13.6 118.89 13.6 119.29 12.36 119.72 13.6 120.79 13.6 119.98 14.41 120.28 15.65 119.3 14.96 118.39 15.65 118.66 14.41 117.82 13.6"/><polygon class="cls-1" points="123.92 13.6 124.99 13.6 125.39 12.36 125.82 13.6 126.89 13.6 126.08 14.41 126.38 15.65 125.4 14.96 124.49 15.65 124.76 14.41 123.92 13.6"/><polygon class="cls-1" points="130.14 13.6 131.22 13.6 131.61 12.36 132.05 13.6 133.12 13.6 132.31 14.41 132.61 15.65 131.63 14.96 130.72 15.65 130.99 14.41 130.14 13.6"/><polygon class="cls-1" points="102.46 16.56 103.54 16.56 103.93 15.32 104.37 16.56 105.44 16.56 104.63 17.37 104.92 18.61 103.95 17.91 103.04 18.61 103.3 17.37 102.46 16.56"/><polygon class="cls-1" points="108.52 16.56 109.59 16.56 109.99 15.32 110.43 16.56 111.49 16.56 110.68 17.37 110.98 18.61 110 17.91 109.09 18.61 109.36 17.37 108.52 16.56"/><polygon class="cls-1" points="114.79 16.56 115.86 16.56 116.26 15.32 116.7 16.56 117.76 16.56 116.95 17.37 117.25 18.61 116.28 17.91 115.36 18.61 115.63 17.37 114.79 16.56"/><polygon class="cls-1" points="120.84 16.56 121.92 16.56 122.32 15.32 122.75 16.56 123.82 16.56 123.01 17.37 123.31 18.61 122.33 17.91 121.42 18.61 121.69 17.37 120.84 16.56"/><polygon class="cls-1" points="126.94 16.56 128.02 16.56 128.41 15.32 128.85 16.56 129.92 16.56 129.11 17.37 129.41 18.61 128.43 17.91 127.52 18.61 127.79 17.37 126.94 16.56"/><polygon class="cls-1" points="99.43 19.18 100.51 19.18 100.9 17.94 101.34 19.18 102.41 19.18 101.6 19.99 101.9 21.22 100.92 20.53 100.01 21.22 100.28 19.99 99.43 19.18"/><polygon class="cls-1" points="105.49 19.18 106.57 19.18 106.96 17.94 107.4 19.18 108.47 19.18 107.65 19.99 107.95 21.22 106.98 20.53 106.06 21.22 106.33 19.99 105.49 19.18"/><polygon class="cls-1" points="111.76 19.18 112.84 19.18 113.23 17.94 113.67 19.18 114.73 19.18 113.92 19.99 114.22 21.22 113.25 20.53 112.33 21.22 112.6 19.99 111.76 19.18"/><polygon class="cls-1" points="117.82 19.18 118.89 19.18 119.29 17.94 119.72 19.18 120.79 19.18 119.98 19.99 120.28 21.22 119.3 20.53 118.39 21.22 118.66 19.99 117.82 19.18"/><polygon class="cls-1" points="123.92 19.18 124.99 19.18 125.39 17.94 125.82 19.18 126.89 19.18 126.08 19.99 126.38 21.22 125.4 20.53 124.49 21.22 124.76 19.99 123.92 19.18"/><polygon class="cls-1" points="130.14 19.18 131.22 19.18 131.61 17.94 132.05 19.18 133.12 19.18 132.31 19.99 132.61 21.22 131.63 20.53 130.72 21.22 130.99 19.99 130.14 19.18"/><polygon class="cls-1" points="99.43 24.7 100.51 24.7 100.9 23.46 101.34 24.7 102.41 24.7 101.6 25.51 101.9 26.74 100.92 26.05 100.01 26.74 100.28 25.51 99.43 24.7"/><polygon class="cls-1" points="105.49 24.7 106.57 24.7 106.96 23.46 107.4 24.7 108.47 24.7 107.65 25.51 107.95 26.74 106.98 26.05 106.06 26.74 106.33 25.51 105.49 24.7"/><polygon class="cls-1" points="111.76 24.7 112.84 24.7 113.23 23.46 113.67 24.7 114.73 24.7 113.92 25.51 114.22 26.74 113.25 26.05 112.33 26.74 112.6 25.51 111.76 24.7"/><polygon class="cls-1" points="117.82 24.7 118.89 24.7 119.29 23.46 119.72 24.7 120.79 24.7 119.98 25.51 120.28 26.74 119.3 26.05 118.39 26.74 118.66 25.51 117.82 24.7"/><polygon class="cls-1" points="123.92 24.7 124.99 24.7 125.39 23.46 125.82 24.7 126.89 24.7 126.08 25.51 126.38 26.74 125.4 26.05 124.49 26.74 124.76 25.51 123.92 24.7"/><polygon class="cls-1" points="130.14 24.7 131.22 24.7 131.61 23.46 132.05 24.7 133.12 24.7 132.31 25.51 132.61 26.74 131.63 26.05 130.72 26.74 130.99 25.51 130.14 24.7"/><polygon class="cls-1" points="102.46 22.14 103.54 22.14 103.93 20.9 104.37 22.14 105.44 22.14 104.63 22.95 104.92 24.18 103.95 23.49 103.04 24.18 103.3 22.95 102.46 22.14"/><polygon class="cls-1" points="108.52 22.14 109.59 22.14 109.99 20.9 110.43 22.14 111.49 22.14 110.68 22.95 110.98 24.18 110 23.49 109.09 24.18 109.36 22.95 108.52 22.14"/><polygon class="cls-1" points="114.79 22.14 115.86 22.14 116.26 20.9 116.7 22.14 117.76 22.14 116.95 22.95 117.25 24.18 116.28 23.49 115.36 24.18 115.63 22.95 114.79 22.14"/><polygon class="cls-1" points="120.84 22.14 121.92 22.14 122.32 20.9 122.75 22.14 123.82 22.14 123.01 22.95 123.31 24.18 122.33 23.49 121.42 24.18 121.69 22.95 120.84 22.14"/><polygon class="cls-1" points="126.94 22.14 128.02 22.14 128.41 20.9 128.85 22.14 129.92 22.14 129.11 22.95 129.41 24.18 128.43 23.49 127.52 24.18 127.79 22.95 126.94 22.14"/><path d="M26.78,10.39v21a10.86,10.86,0,0,1-3.7,8.72,14.37,14.37,0,0,1-9.65,3.15,14.52,14.52,0,0,1-9.71-3.15A10.82,10.82,0,0,1,0,31.42v-21H7.55v21A6.1,6.1,0,0,0,9.11,36a5.87,5.87,0,0,0,4.32,1.54A5.77,5.77,0,0,0,17.7,36a6.16,6.16,0,0,0,1.52-4.55v-21Z"/><path d="M48.5,34.22a3.23,3.23,0,0,0-1.14-2.66,15,15,0,0,0-4.12-2,31.22,31.22,0,0,1-9-4.18A7.51,7.51,0,0,1,31.34,19a7.83,7.83,0,0,1,3.41-6.59,14.19,14.19,0,0,1,8.67-2.52,14.31,14.31,0,0,1,8.93,2.59,8.4,8.4,0,0,1,3.27,7.32l0,.14H48.27A4.09,4.09,0,0,0,47,16.64a5.83,5.83,0,0,0-3.77-1,4.82,4.82,0,0,0-3.23,1,3.13,3.13,0,0,0-1.18,2.48,2.65,2.65,0,0,0,1.21,2.28,23.63,23.63,0,0,0,4.54,2.15,24,24,0,0,1,8.53,4.08A8.1,8.1,0,0,1,56,34.18a7.79,7.79,0,0,1-3.34,6.69,14.78,14.78,0,0,1-8.86,2.42,16.23,16.23,0,0,1-9.33-2.6q-3.81-2.59-3.7-8.16l0-.13h7.33c0,1.88.46,3.22,1.39,4a6.48,6.48,0,0,0,4.27,1.19,5.52,5.52,0,0,0,3.52-.94A3,3,0,0,0,48.5,34.22Z"/><path d="M60.12,42.82V10.39H72a13.23,13.23,0,0,1,9.58,3.73,12.74,12.74,0,0,1,3.85,9.57v5.83a12.72,12.72,0,0,1-3.85,9.58A13.27,13.27,0,0,1,72,42.82Zm7.53-26.64V37H72a5.19,5.19,0,0,0,4.22-2.09,8.5,8.5,0,0,0,1.66-5.42V23.64a8.43,8.43,0,0,0-1.66-5.37A5.19,5.19,0,0,0,72,16.18Z"/></g></g></svg>