<svg xmlns="http://www.w3.org/2000/svg" viewBox="0 0 190.06 53.17"><defs><style>.cls-1{fill:#fff;}.cls-2{fill:#ffb71b;}.cls-3{fill:#00754a;}.cls-4{fill:#e43d30;}.cls-5{fill:#001689;}.cls-6{fill:#231f20;}</style></defs><title>SSB_Website_Icon_Assets_Asset 36</title><g id="Layer_2" data-name="Layer 2"><g id="Layer_1-2" data-name="Layer 1"><rect class="cls-1" x="98.5" width="91.55" height="53.17"/><polygon class="cls-2" points="98.5 3.68 121.65 26.68 98.5 49.63 98.5 53.17 100.83 53.17 127.07 26.94 100.13 0 98.5 0 98.5 3.68 98.5 3.68"/><polygon class="cls-3" points="98.5 0.11 125.22 26.71 98.65 53.17 117.27 53.17 136.89 34.05 190.06 34.05 190.06 19.38 136.89 19.38 117.02 0 98.5 0 98.5 0.11 98.5 0.11"/><polygon class="cls-4" points="120.44 0 137.94 17.61 190.06 17.62 190.06 0 120.44 0 120.44 0"/><polygon class="cls-5" points="190.06 53.17 190.06 35.67 138.01 35.67 120.34 53.17 190.06 53.17 190.06 53.17"/><polygon class="cls-6" points="121.65 26.68 98.5 3.73 98.5 49.7 121.65 26.68 121.65 26.68"/><path d="M9,37H22.34V42.8H.07V39.42l13.1-23.26H0V10.37H22.14v3.25Z"/><path d="M43.62,36.5H34L32.1,42.8H24.17L34.75,10.37h4v0l0,0h4L53.44,42.8H45.51Zm-7.91-5.79h6.17l-3-10.07h-.13Z"/><path d="M63.29,30.37V42.8H55.76V10.37H67.05q5.64,0,8.93,2.61a8.58,8.58,0,0,1,3.3,7.13A7.15,7.15,0,0,1,78,24.43a9.51,9.51,0,0,1-3.91,2.94,7.17,7.17,0,0,1,4.28,2.82,8.7,8.7,0,0,1,1.31,4.91v2A12.49,12.49,0,0,0,80,40a3.83,3.83,0,0,0,1.31,2.32v.44H73.56a3.62,3.62,0,0,1-1.16-2.42,21.41,21.41,0,0,1-.27-3.28v-2a4.83,4.83,0,0,0-1.22-3.54,4.87,4.87,0,0,0-3.59-1.23Zm0-5.79H67.1a5.17,5.17,0,0,0,3.47-1,3.73,3.73,0,0,0,1.2-3,4.28,4.28,0,0,0-1.23-3.19,4.78,4.78,0,0,0-3.49-1.22H63.29Z"/></g></g></svg>