<svg xmlns="http://www.w3.org/2000/svg" viewBox="0 0 31.8 32.59"><defs><style>.cls-1{fill:#3d3d3d;}</style></defs><title>SSB_Assets_GlobalAsset 19</title><g id="Layer_2" data-name="Layer 2"><g id="Layer_1-2" data-name="Layer 1"><path class="cls-1" d="M29.27,1.5H27.36V1a1,1,0,1,0-1.94,0V1.5H20.37V1a1,1,0,0,0-1.95,0V1.5H13.37V1a1,1,0,0,0-1.94,0V1.5h-5V1A1,1,0,0,0,4.43,1V1.5H2.53A2.53,2.53,0,0,0,0,4V7.7A2.52,2.52,0,0,0,1.56,10v20a2.52,2.52,0,0,0,2.52,2.53H27.72a2.52,2.52,0,0,0,2.52-2.53V10A2.53,2.53,0,0,0,31.8,7.7V4A2.53,2.53,0,0,0,29.27,1.5ZM1.94,4a.59.59,0,0,1,.59-.59h1.9v.45a1,1,0,0,0,2,0V3.44h5.05v.45a1,1,0,1,0,1.94,0V3.44h5.05v.45a1,1,0,0,0,1.95,0V3.44h5.05v.45a1,1,0,1,0,1.94,0V3.44h1.91a.59.59,0,0,1,.58.59V7.7a.59.59,0,0,1-.58.59H2.53a.59.59,0,0,1-.59-.59ZM27.72,30.65H4.08a.58.58,0,0,1-.58-.59V10.23H28.3V30.06a.58.58,0,0,1-.58.59Zm0,0"/><path class="cls-1" d="M19.18,15.53a1,1,0,0,0,0-1.94H12.62a1,1,0,0,0-1,1v4.79a1,1,0,0,0,1,1h5.59V23.7H12.62a1,1,0,0,0,0,1.94h6.56a1,1,0,0,0,1-1V19.35a1,1,0,0,0-1-1H13.59V15.53Zm0,0"/></g></g></svg>