<?xml version="1.0" encoding="UTF-8"?>
<svg preserveAspectRatio="xMidYMid slice" width="160px" height="160px" xmlns="http://www.w3.org/2000/svg" viewBox="0 0 167.93 167.93">
  <defs>
    <style>.cls-1{fill:#1a75bb;}</style>
  </defs>
  <g fill="#1a75bb" id="Layer_2">
    <g fill="#1a75bb" id="BG">
      <path class="cls-1" d="M84,167.93a84,84,0,1,1,84-84A84.06,84.06,0,0,1,84,167.93ZM84,7.29A76.68,76.68,0,1,0,160.64,84,76.77,76.77,0,0,0,84,7.29Z"></path>
      <path class="cls-1" d="M49.06,37.65c-4.09,0-7.89,2.07-10.71,5.83a22.2,22.2,0,0,0-4.16,13.28A22.2,22.2,0,0,0,38.35,70a15,15,0,0,0,5.5,4.63L40.7,122a8.38,8.38,0,1,0,16.72,0l-3.15-47.3A15,15,0,0,0,59.77,70a22.2,22.2,0,0,0,4.16-13.28,22.2,22.2,0,0,0-4.16-13.28C57,39.72,53.15,37.65,49.06,37.65Zm4.09,84.61a4.1,4.1,0,1,1-8.18,0l3.09-46.44c.33,0,.67,0,1,0s.67,0,1,0ZM49.06,71.59a7.71,7.71,0,0,1-2.23-.33l-.18-.06c-4.68-1.54-8.17-7.42-8.17-14.44,0-8.18,4.75-14.83,10.59-14.83s10.59,6.65,10.59,14.83S54.9,71.59,49.06,71.59Z"></path>
      <path class="cls-1" d="M127.15,93.37V40.06h0a2.14,2.14,0,0,0-3.25-2.1A29.21,29.21,0,0,0,110,63h0V91a4.54,4.54,0,0,0,4.4,4.53v29a6.4,6.4,0,0,0,12.8,0V93.38ZM114.23,91V63h0a24.93,24.93,0,0,1,8.65-19V91.24h-8.38A.26.26,0,0,1,114.23,91Zm8.65,33.5a2.12,2.12,0,0,1-4.24,0v-29h4.24Z"></path>
      <path class="cls-1" d="M94.66,37.65a2.14,2.14,0,0,0-2.14,2.14v24.3H87.07V39.79a2.14,2.14,0,0,0-4.28,0v24.3H77.35V39.79a2.14,2.14,0,0,0-4.28,0v31a6.33,6.33,0,0,0,6.32,6.32h.38l-3,45.11a8.18,8.18,0,1,0,16.33,0l-3-45.11h.38a6.33,6.33,0,0,0,6.32-6.32v-31A2.14,2.14,0,0,0,94.66,37.65Zm-5.83,84.82a3.9,3.9,0,1,1-7.79,0l3-45.39h1.75Zm1.65-49.67H79.39a2,2,0,0,1-2-2V68.36H92.52v2.39A2,2,0,0,1,90.48,72.79Z"></path>
    </g>
  </g>
</svg>
