<?xml version="1.0" encoding="UTF-8"?>
<svg preserveAspectRatio="xMidYMid slice" width="160px" height="160px" xmlns="http://www.w3.org/2000/svg" viewBox="0 0 167.93 167.93">
  <g fill="#1a75bb" id="Layer_2">
    <g fill="#1a75bb" id="BG">
      <path class="cls-1" d="M84,167.93a84,84,0,1,1,84-84A84.06,84.06,0,0,1,84,167.93ZM84,7.29A76.68,76.68,0,1,0,160.64,84,76.77,76.77,0,0,0,84,7.29Z"></path>
      <path class="cls-1" d="M84,38.48a27.74,27.74,0,0,0-11.2,53.12l9,16a2.49,2.49,0,0,0,4.34,0l9-16A27.74,27.74,0,0,0,84,38.48Zm8.51,48.84a2.5,2.5,0,0,0-1.24,1.08L84,101.26,76.69,88.4a2.5,2.5,0,0,0-1.24-1.08,22.75,22.75,0,1,1,17,0Zm0,0"></path>
      <path class="cls-1" d="M84,109.18a2.87,2.87,0,0,1-2.49-1.45l-9-15.86a28.09,28.09,0,1,1,22.92,0l-9,15.86A2.87,2.87,0,0,1,84,109.18Zm0-70.34A27.38,27.38,0,0,0,72.91,91.26l.11,0,.06.1,9,16a2.13,2.13,0,0,0,3.71,0l9.09-16.06.11,0A27.38,27.38,0,0,0,84,38.84ZM84,102,76.37,88.58a2.13,2.13,0,0,0-1.06-.93,23.11,23.11,0,1,1,17.3,0h0a2.15,2.15,0,0,0-1.06.93Zm0-58.17A22.39,22.39,0,0,0,75.59,87,2.87,2.87,0,0,1,77,88.22l7,12.3,7-12.3A2.88,2.88,0,0,1,92.34,87h0A22.39,22.39,0,0,0,84,43.83Z"></path>
      <path class="cls-1" d="M84,55.59A10.48,10.48,0,1,0,94.44,66.06,10.49,10.49,0,0,0,84,55.59Zm0,16a5.49,5.49,0,1,1,5.49-5.49A5.49,5.49,0,0,1,84,71.55Zm0,0"></path>
      <path class="cls-1" d="M84,76.9A10.84,10.84,0,1,1,94.8,66.06,10.85,10.85,0,0,1,84,76.9Zm0-21A10.11,10.11,0,1,0,94.08,66.06,10.12,10.12,0,0,0,84,56Zm0,16a5.85,5.85,0,1,1,5.85-5.85A5.86,5.86,0,0,1,84,71.92Zm0-11a5.12,5.12,0,1,0,5.12,5.12A5.13,5.13,0,0,0,84,60.94Z"></path>
      <path class="cls-1" d="M109.42,86.32a32.76,32.76,0,0,1-3.51,3.74c14.74,3.4,23.72,10,23.72,16.28,0,9-18.35,18.62-45.67,18.62S38.3,115.33,38.3,106.34c0-6.29,9-12.88,23.72-16.28a32.76,32.76,0,0,1-3.51-3.74c-14.89,4-24.71,11.37-24.71,20,0,13,22,23.12,50.17,23.12s50.17-10.15,50.17-23.12C134.13,97.69,124.31,90.29,109.42,86.32Z"></path>
      <path class="cls-1" d="M84,129.82c-28.33,0-50.53-10.31-50.53-23.48,0-8.59,9.34-16.2,25-20.37l.23-.06.15.19a32.55,32.55,0,0,0,3.47,3.69l.51.47-.68.16c-14,3.24-23.44,9.63-23.44,15.93,0,8.82,18.2,18.25,45.3,18.25s45.3-9.44,45.3-18.25c0-6.29-9.42-12.69-23.44-15.93l-.68-.16.51-.47a32.55,32.55,0,0,0,3.47-3.69l.15-.19.23.06c15.64,4.17,25,11.78,25,20.37C134.5,119.5,112.3,129.82,84,129.82ZM58.37,86.73c-15.17,4.09-24.21,11.41-24.21,19.6,0,12.76,21.88,22.75,49.8,22.75s49.8-10,49.8-22.75c0-8.2-9-15.52-24.21-19.6a33.32,33.32,0,0,1-2.89,3.13C120.86,93.26,130,99.7,130,106.34c0,4.68-4.67,9.42-12.81,13-8.72,3.85-20.52,6-33.23,6s-24.5-2.12-33.23-6c-8.14-3.59-12.81-8.33-12.81-13,0-6.64,9.13-13.07,23.33-16.48A33.32,33.32,0,0,1,58.37,86.73Z"></path>
    </g>
  </g>
</svg>
