<?xml version="1.0" encoding="UTF-8"?>
<svg preserveAspectRatio="xMidYMid slice" width="160px" height="160px" xmlns="http://www.w3.org/2000/svg" viewBox="0 0 167.93 167.93">
  <g fill="#1a75bb" id="Layer_2">
    <g fill="#1a75bb" id="BG">
      <path class="cls-1" d="M84,167.93a84,84,0,1,1,84-84A84.06,84.06,0,0,1,84,167.93ZM84,7.29A76.68,76.68,0,1,0,160.64,84,76.77,76.77,0,0,0,84,7.29Z"></path>
      <path class="cls-1" d="M35.79,110.32a2.15,2.15,0,0,1-1.52-3.67l7.55-7.55-.33-.65a9.5,9.5,0,0,1,.82-10l23-30.11V58a21.17,21.17,0,0,1,6.16-15.24A21.06,21.06,0,1,1,86.32,78.71h-.71l-30.1,22.94a9.33,9.33,0,0,1-5.65,1.88,9.55,9.55,0,0,1-4.34-1l-.65-.33-7.55,7.55A2.14,2.14,0,0,1,35.79,110.32ZM45.75,91a5.15,5.15,0,0,0,.48,6.68,5.14,5.14,0,0,0,6.68.48L81.68,76.29l-14-14ZM72.33,48.42a16.74,16.74,0,0,0-2.77,9.25v.41L85.87,74.4h.41a16.75,16.75,0,0,0,9.25-2.77l1-.68L73,47.4Zm14-7.51a16.7,16.7,0,0,0-9.24,2.77l-1,.68L99.61,67.92l.67-1a16.81,16.81,0,0,0-2.13-21.09A16.64,16.64,0,0,0,86.31,40.9Z"></path>
      <path class="cls-1" d="M86.22,131.33c-5.82,0-10.56-3.79-10.56-8.45s4.74-8.45,10.56-8.45a12.86,12.86,0,0,1,4.87.94l1.38.57V89.26a2.14,2.14,0,0,1,1.35-2l31.51-12.61a2.15,2.15,0,0,1,3,2v39.92c0,4.66-4.74,8.46-10.56,8.46s-10.55-3.79-10.55-8.46,4.73-8.45,10.55-8.45a12.87,12.87,0,0,1,4.87.94l1.38.57V92.43L96.77,103.32v19.55C96.77,127.53,92,131.33,86.22,131.33Zm0-12.61c-3.39,0-6.25,1.9-6.25,4.15S82.83,127,86.22,127s6.25-1.9,6.25-4.15S89.61,118.72,86.22,118.72Zm31.51-6.3c-3.39,0-6.25,1.9-6.25,4.15s2.86,4.15,6.25,4.15,6.25-1.9,6.25-4.15S121.12,112.42,117.73,112.42Zm-21-21.7v8L124,87.8v-8Z"></path>
    </g>
  </g>
</svg>
