<svg xmlns="http://www.w3.org/2000/svg" viewBox="0 0 23.64 22.12"><defs><style>.cls-1{fill:#3d3d3d;stroke:#3d3d3d;stroke-miterlimit:10;stroke-width:0.5px;}</style></defs><title>SSB_Assets_GlobalAsset 22</title><g id="Layer_2" data-name="Layer 2"><g id="Layer_1-2" data-name="Layer 1"><path class="cls-1" d="M12.22,13.9a1.06,1.06,0,0,0,0-2.12L7.49,8.26l3.68,4.64a1.07,1.07,0,0,0,1.05,1Zm0,0"/><path class="cls-1" d="M11.82.25A11.64,11.64,0,0,0,.25,12a11.79,11.79,0,0,0,2,6.51H3.65l0,0,0,0h.06l0,0,2-1.77-1-1.13L2.92,17.21A10.44,10.44,0,0,1,1.52,12c0-.09,0-.18,0-.27h2.3V10.21H1.67A10.38,10.38,0,0,1,3.84,5.37L5.45,7l1-1L4.86,4.29a10.18,10.18,0,0,1,6-2.71V4.26H12.3V1.55a10.2,10.2,0,0,1,6.62,2.87l-1.67,1.7,1,1,1.63-1.65a10.51,10.51,0,0,1,2,4.69H19.73V11.7h2.38c0,.09,0,.18,0,.27a10.49,10.49,0,0,1-1.39,5.22L19,15.41l-1,1.05,1.95,2,0,0h1.57a11.8,11.8,0,0,0,2-6.51A11.64,11.64,0,0,0,11.82.25Zm0,0"/><rect class="cls-1" x="6.56" y="19.12" width="10.43" height="2.75"/></g></g></svg>