<svg xmlns="http://www.w3.org/2000/svg" viewBox="0 0 42.08 43.13"><defs><style>.cls-1{fill:#3d3d3d;}</style></defs><title>KIL_Website_AssetsAsset 6</title><g id="Layer_2" data-name="Layer 2"><g id="Layer_1-2" data-name="Layer 1"><path class="cls-1" d="M38.73,2H36.21v-.7a1.29,1.29,0,1,0-2.57,0V2H27v-.7a1.29,1.29,0,1,0-2.57,0V2H17.69v-.7a1.29,1.29,0,1,0-2.57,0V2H8.44v-.7a1.29,1.29,0,1,0-2.57,0V2H3.34A3.35,3.35,0,0,0,0,5.33v4.86a3.35,3.35,0,0,0,2.06,3.09v26.5A3.35,3.35,0,0,0,5.4,43.13H36.67A3.35,3.35,0,0,0,40,39.78V13.28a3.35,3.35,0,0,0,2.06-3.09V5.33A3.35,3.35,0,0,0,38.73,2ZM2.57,5.33a.77.77,0,0,1,.77-.77H5.86v.58a1.29,1.29,0,1,0,2.57,0V4.56h6.69v.58a1.29,1.29,0,1,0,2.57,0V4.56h6.69v.58a1.29,1.29,0,0,0,2.57,0V4.56h6.69v.58a1.29,1.29,0,1,0,2.57,0V4.56h2.52a.77.77,0,0,1,.77.77v4.86a.77.77,0,0,1-.77.77H3.34a.77.77,0,0,1-.77-.77Zm34.1,35.22H5.4a.77.77,0,0,1-.77-.77V13.54H37.45V39.78a.77.77,0,0,1-.77.77Zm0,0"/><path class="cls-1" d="M25.38,20.56a1.29,1.29,0,0,0,0-2.57H16.7a1.29,1.29,0,0,0-1.29,1.29V25.6a1.29,1.29,0,0,0,1.29,1.29h7.39v4.47H16.7a1.29,1.29,0,1,0,0,2.57h8.68a1.29,1.29,0,0,0,1.29-1.29v-7a1.29,1.29,0,0,0-1.29-1.29H18V20.56Zm0,0"/></g></g></svg>
