<svg xmlns="http://www.w3.org/2000/svg" viewBox="0 0 39.72 21.62"><defs><style>.cls-1{fill:#3d3d3d;}</style></defs><title>SSB_Website_SVG_Icons_Asset 30</title><g id="Layer_2" data-name="Layer 2"><g id="Layer_1-2" data-name="Layer 1"><path class="cls-1" d="M19.86,21.62c-4.47,0-9.27-1.75-13.9-5.05a35.36,35.36,0,0,1-5.69-5,1.14,1.14,0,0,1,0-1.47A35.6,35.6,0,0,1,6,5.05c4.63-3.3,9.43-5,13.9-5s9.27,1.75,13.9,5.05a35.6,35.6,0,0,1,5.69,5,1.14,1.14,0,0,1,0,1.47,35.36,35.36,0,0,1-5.69,5c-4.63,3.3-9.43,5.05-13.9,5.05ZM2.66,10.81a36.09,36.09,0,0,0,4.65,4c3,2.1,7.52,4.6,12.55,4.6s9.6-2.5,12.55-4.6a36.09,36.09,0,0,0,4.65-4,36.09,36.09,0,0,0-4.65-4c-2.95-2.1-7.52-4.6-12.55-4.6s-9.6,2.5-12.55,4.6a36.09,36.09,0,0,0-4.65,4Z"/><path class="cls-1" d="M19.86,17.77a7,7,0,1,1,4.59-12.2A1.12,1.12,0,0,1,23,7.26a4.72,4.72,0,1,0,1.61,3.55,1.12,1.12,0,1,1,2.24,0,7,7,0,0,1-7,7Z"/><path class="cls-1" d="M19.86,13.05a2.25,2.25,0,1,1,2.25-2.24,2.24,2.24,0,0,1-2.25,2.24Z"/></g></g></svg>