<svg xmlns="http://www.w3.org/2000/svg" viewBox="0 0 39.03 21.25"><defs><style>.cls-1{fill:#3d3d3d;}</style></defs><title>SSB_Website_SVG_Icons_Asset 31</title><g id="Layer_2" data-name="Layer 2"><g id="Layer_1-2" data-name="Layer 1"><path class="cls-1" d="M19.6,12.17C8.87,12.17.6,2.22.25,1.8A1.1,1.1,0,0,1,2,.4C2,.5,9.93,10,19.6,10S37,.51,37.08.41A1.1,1.1,0,0,1,38.62.24a1.11,1.11,0,0,1,.17,1.55C38.45,2.21,30.34,12.17,19.6,12.17Z"/><path class="cls-1" d="M19.52,21.25a1.1,1.1,0,0,1-1.1-1.1V15.32a1.1,1.1,0,0,1,2.2,0v4.83A1.1,1.1,0,0,1,19.52,21.25Z"/><path class="cls-1" d="M6.26,18a1.1,1.1,0,0,1-1-1.65l2.42-4.19a1.1,1.1,0,1,1,1.9,1.1L7.21,17.47A1.1,1.1,0,0,1,6.26,18Z"/><path class="cls-1" d="M32.77,18a1.1,1.1,0,0,1-1-.55L29.4,13.28a1.1,1.1,0,0,1,1.91-1.1l2.41,4.19A1.1,1.1,0,0,1,32.77,18Z"/></g></g></svg>