<?xml version="1.0" encoding="UTF-8"?>
<svg xmlns="http://www.w3.org/2000/svg" xmlns:xlink="http://www.w3.org/1999/xlink" viewBox="0 0 40 40" version="1.1" width="24px" height="24px">
<g id="surface1">
<path style=" fill:#1a75bb;" d="M 4.769531 37.5 C 3.519531 37.5 2.5 36.480469 2.5 35.230469 L 2.5 4.769531 C 2.5 3.519531 3.519531 2.5 4.769531 2.5 L 35.230469 2.5 C 36.480469 2.5 37.5 3.519531 37.5 4.769531 L 37.5 35.230469 C 37.5 36.480469 36.480469 37.5 35.230469 37.5 Z "/>
<path style=" fill:#000000;" d="M 35.230469 3 C 36.207031 3 37 3.792969 37 4.769531 L 37 35.230469 C 37 36.207031 36.207031 37 35.230469 37 L 4.769531 37 C 3.792969 37 3 36.207031 3 35.230469 L 3 4.769531 C 3 3.792969 3.792969 3 4.769531 3 L 35.230469 3 M 35.230469 2 L 4.769531 2 C 3.238281 2 2 3.238281 2 4.769531 L 2 35.230469 C 2 36.761719 3.238281 38 4.769531 38 L 35.230469 38 C 36.761719 38 38 36.761719 38 35.230469 L 38 4.769531 C 38 3.238281 36.761719 2 35.230469 2 Z "/>
<path style="fill:#1a75bb;stroke-width:3;stroke-linecap:butt;stroke-linejoin:miter;stroke:#E6E6E6;stroke-opacity:1;stroke-miterlimit:10;" d="M 11 20.054688 L 16.964844 26.019531 L 30.386719 12.597656 "/>
</g>
</svg>
