<svg xmlns="http://www.w3.org/2000/svg" viewBox="0 0 44.2 51.96"><defs><style>.cls-1{fill:#FFFFFF;}</style></defs><title>KIL_Website_AssetsAsset 5</title><g id="Layer_2" data-name="Layer 2"><g id="Layer_1-2" data-name="Layer 1"><path class="cls-1" d="M21.91,28h.34a9.93,9.93,0,0,0,7.59-3.28C34,20,33.3,12,33.22,11.28,33,5.54,30.24,2.8,28,1.52A12,12,0,0,0,22.21,0H22a12,12,0,0,0-5.79,1.47c-2.26,1.28-5,4-5.28,9.8-.08.76-.76,8.77,3.38,13.44A9.89,9.89,0,0,0,21.91,28ZM13.83,11.55s0-.06,0-.09C14.2,3.74,19.67,2.92,22,2.92h.13C25.05,3,30,4.16,30.33,11.46a.21.21,0,0,0,0,.09c0,.08.76,7.39-2.66,11.25a7.05,7.05,0,0,1-5.54,2.3H22a7,7,0,0,1-5.53-2.3C13.09,19,13.82,11.61,13.83,11.55Zm0,0"/><path class="cls-1" d="M44.2,41.28v0c0-.09,0-.17,0-.27-.06-2.13-.2-7.11-4.87-8.71l-.11,0a31.06,31.06,0,0,1-8.93-4.07,1.45,1.45,0,0,0-1.67,2.38A33.55,33.55,0,0,0,38.43,35c2.51.89,2.79,3.57,2.86,6a2.11,2.11,0,0,0,0,.27,19.59,19.59,0,0,1-.23,3.32c-1.74,1-8.58,4.41-19,4.41a39.83,39.83,0,0,1-19-4.42,18.47,18.47,0,0,1-.23-3.33c0-.09,0-.17,0-.27.08-2.45.36-5.13,2.86-6a33.81,33.81,0,0,0,9.82-4.49,1.45,1.45,0,1,0-1.67-2.38A30.71,30.71,0,0,1,5,32.23l-.11,0C.22,33.86.08,38.85,0,41a2.18,2.18,0,0,1,0,.27v0a16.49,16.49,0,0,0,.55,4.87,1.38,1.38,0,0,0,.56.68C1.43,47,9.17,52,22.12,52s20.68-4.94,21-5.14a1.44,1.44,0,0,0,.56-.68,17.32,17.32,0,0,0,.52-4.86Zm0,0"/></g></g></svg>