<svg xmlns="http://www.w3.org/2000/svg" viewBox="0 0 15.11 10.98" height="24px" width="24px"><defs><style>.cls-1{fill:#3d3d3d;}</style></defs><title>SSB_Website_Experiences_Icons_Grey_Tourist_DashboardAsset 32</title><g id="Layer_2" data-name="Layer 2"><g id="Layer_1-2" data-name="Layer 1"><path class="cls-1" d="M14.6,0H.51A.51.51,0,0,0,0,.51v10A.51.51,0,0,0,.51,11H14.6a.51.51,0,0,0,.51-.51V.51A.51.51,0,0,0,14.6,0Zm-.52,10H1V1H14.08Z"/><path class="cls-1" d="M2.37,3.44l4.92,3a.48.48,0,0,0,.26.07.5.5,0,0,0,.27-.07l4.92-3a.51.51,0,1,0-.54-.87L7.55,5.43,2.9,2.57a.5.5,0,0,0-.7.16.52.52,0,0,0,.17.71Z"/></g></g></svg>
