<svg xmlns="http://www.w3.org/2000/svg" viewBox="0 0 31.12 31.12"><defs><style>.cls-1{fill:#fdbf0f;}</style></defs><title>KIL_Website_AssetsAsset 11</title><g id="Layer_2" data-name="Layer 2"><g id="Layer_1-2" data-name="Layer 1"><path class="cls-1" d="M17.19,15.56l4-4A1.15,1.15,0,0,0,19.54,10l-4,4-4-4A1.15,1.15,0,1,0,10,11.58l4,4-4,4a1.15,1.15,0,1,0,1.63,1.63l4-4,4,4a1.15,1.15,0,1,0,1.63-1.63Zm0,0"/><path class="cls-1" d="M15.56,4A11.56,11.56,0,1,1,4,15.56,11.56,11.56,0,0,1,15.56,4m0-4A15.56,15.56,0,1,0,31.12,15.56,15.58,15.58,0,0,0,15.56,0Z"/></g></g></svg>