<svg xmlns="http://www.w3.org/2000/svg" viewBox="0 0 75.63 75.63"><defs><style>.cls-1{fill:#1a75bb;}.cls-2{fill:#fff;}</style></defs><title>SSB_Website_Scroll_to_Top_ButtonAsset 31</title><g id="Layer_2" data-name="Layer 2"><g id="Layer_1-2" data-name="Layer 1"><circle class="cls-1" cx="37.81" cy="37.81" r="36.81" transform="translate(-14.23 50.1) rotate(-58.28)"/><path class="cls-2" d="M37.81,2A35.82,35.82,0,1,1,2,37.81,35.82,35.82,0,0,1,37.81,2m0-2A37.82,37.82,0,1,0,75.63,37.81,37.85,37.85,0,0,0,37.81,0Z"/><g id="Layer_2-2" data-name="Layer 2"><g id="Layer_1-2-2" data-name="Layer 1-2"><path class="cls-2" d="M16.66,44.24a2.21,2.21,0,0,0-.09,3.11h0a2.16,2.16,0,0,0,3.07.09h0L38,29.56,55.9,47.44a2.22,2.22,0,0,0,3.08,0,2.28,2.28,0,0,0,.68-1.64A2.2,2.2,0,0,0,59,44.24L39.67,24.84a2.27,2.27,0,0,0-3.12,0Z"/></g></g></g></g></svg>