<svg xmlns="http://www.w3.org/2000/svg" viewBox="0 0 24.74 24.74"><defs><style>.cls-1{fill:#3d3d3d;}</style></defs><title>SSB_Website_Experiences_Icons_Grey_Tourist_DashboardAsset 31</title><g id="Layer_2" data-name="Layer 2"><g id="Layer_1-2" data-name="Layer 1"><path class="cls-1" d="M18.39,15.4l6.2,6.2a.53.53,0,0,1,0,.74l-2.25,2.25a.53.53,0,0,1-.74,0l-6.2-6.2A9.62,9.62,0,0,1,10,20a9.61,9.61,0,0,1-7.06-2.94A9.63,9.63,0,0,1,0,10,9.64,9.64,0,0,1,2.94,2.93,9.64,9.64,0,0,1,10,0a9.66,9.66,0,0,1,7.07,2.93A9.64,9.64,0,0,1,20,10,9.62,9.62,0,0,1,18.39,15.4ZM5.17,5.19a6.54,6.54,0,0,0-2,4.81,6.56,6.56,0,0,0,2,4.82,6.6,6.6,0,0,0,4.83,2,6.57,6.57,0,0,0,4.83-2,6.57,6.57,0,0,0,2-4.83,6.57,6.57,0,0,0-2-4.82,6.58,6.58,0,0,0-4.83-2A6.57,6.57,0,0,0,5.17,5.19Z"/></g></g></svg>