<?xml version="1.0" encoding="UTF-8"?>
<svg xmlns="http://www.w3.org/2000/svg" xmlns:xlink="http://www.w3.org/1999/xlink" viewBox="0 0 50 50" version="1.1" width="24px" height="24px">
<g id="surface1">
<path fill="#FFFFFF" d="M 39.695313 47.226563 C 39.511719 47.226563 39.324219 47.175781 39.164063 47.070313 L 25 38.179688 L 10.835938 47.070313 C 10.492188 47.289063 10.046875 47.273438 9.71875 47.035156 C 9.386719 46.796875 9.234375 46.378906 9.335938 45.980469 L 13.414063 29.765625 L 0.582031 19.042969 C 0.269531 18.78125 0.148438 18.355469 0.273438 17.964844 C 0.398438 17.578125 0.75 17.304688 1.15625 17.277344 L 17.839844 16.144531 L 24.070313 0.628906 C 24.222656 0.25 24.59375 0 25 0 C 25.40625 0 25.777344 0.25 25.929688 0.628906 L 32.160156 16.144531 L 48.84375 17.277344 C 49.25 17.304688 49.601563 17.578125 49.726563 17.964844 C 49.851563 18.355469 49.730469 18.777344 49.417969 19.042969 L 36.585938 29.765625 L 40.664063 45.980469 C 40.765625 46.378906 40.613281 46.792969 40.28125 47.035156 C 40.109375 47.160156 39.902344 47.226563 39.695313 47.226563 Z "/>
</g>
</svg>
