<svg width="300px" height="100px" xmlns="http://www.w3.org/2000/svg" viewBox="0 0 317 106"><defs><style>.cls-1{fill:#1a75bb;}.cls-1,.cls-2,.cls-4,.cls-5{fill-rule:evenodd;}.cls-2,.cls-3{fill:#fff;}.cls-5{fill:#c2151c;}.cls-6{fill:#231f20;}</style></defs><title>Sightseeing Buddy_Website_AssetsAsset 3</title><g id="Layer_2" data-name="Layer 2"><g id="Layer_1-2" data-name="Layer 1"><path class="cls-1" d="M76.7,20.27C72.9,23,66,21.71,66,21.71,96.74,13.81,90.18.28,90.18.28,88.78,17,54.55,2.1,42.33.28c-14-2.06-30.91,7.36-31,21.82a13.1,13.1,0,0,0-10,8.39C-2.65,40.5,3.48,60.2,5,63.9c0,.11.08.17.13.26C14.48,89.37,38,106.1,38,106.1S66.27,86,73.24,56.77c.16-.59.29-1.2.42-1.8.55-1.68,7-22-1.94-28.82A15.27,15.27,0,0,0,76.7,20.27Z"/><path class="cls-2" d="M38,21C53.66,21,66.31,33.1,66.31,48S53.66,75.13,38,75.13,9.74,63,9.74,48,22.39,21,38,21Z"/><circle class="cls-3" cx="20.02" cy="40.86" r="13.53"/><path d="M20,56.78A15.92,15.92,0,1,1,35.94,40.86,15.94,15.94,0,0,1,20,56.78Zm0-27.06A11.14,11.14,0,1,0,31.17,40.86,11.16,11.16,0,0,0,20,29.72Z"/><circle class="cls-3" cx="56.08" cy="40.86" r="13.53"/><path d="M56.08,56.78A15.92,15.92,0,1,1,72,40.86,15.94,15.94,0,0,1,56.08,56.78Zm0-27.06A11.14,11.14,0,1,0,67.23,40.86,11.16,11.16,0,0,0,56.08,29.72Z"/><rect x="31.93" y="35.11" width="12.39" height="5.3"/><path class="cls-4" d="M20,33.69c3.4,0,6.16,3.21,6.16,7.16S23.42,48,20,48s-6.16-3.21-6.16-7.2,2.76-7.16,6.16-7.16Z"/><path class="cls-2" d="M17.26,35.84a2,2,0,0,1,0,4,2,2,0,0,1,0-4Z"/><path class="cls-4" d="M56,33.69c3.4,0,6.16,3.21,6.16,7.16S59.39,48,56,48s-6.16-3.21-6.16-7.2,2.76-7.16,6.16-7.16Z"/><path class="cls-2" d="M53.19,35.84a2,2,0,0,1,0,4,2,2,0,0,1,0-4Z"/><path d="M47.08,58.08a7.39,7.39,0,0,0,2.3.28C43.2,64.3,33,65.18,26.72,62.7c1.32,5,10.42,11.09,24.16,3.78a18.64,18.64,0,0,1-18.71,4.93c-5.26-1.47-9.1-6.54-9.94-13.33,4,2.9,13.81,4.44,21.31,1.19a8.71,8.71,0,0,1-3.07-3.88,18.71,18.71,0,0,0,6.62,2.69Z"/><path class="cls-5" d="M40,63.29a22.94,22.94,0,0,1-13.33-.6c1,4,7,8.63,16.27,6.72A7,7,0,0,1,40,63.29Z"/><path d="M104.92,36.58a4.56,4.56,0,0,0-1.62-3.32,6.75,6.75,0,0,0-4.19-1.09Q94,32.17,94,35.7A2.61,2.61,0,0,0,95,37.82a9,9,0,0,0,3.43,1.42q2.79.66,4.85,1.22a28.2,28.2,0,0,1,3.76,1.31,9.52,9.52,0,0,1,1.81,1,5.54,5.54,0,0,1,1.44,1.46,7.38,7.38,0,0,1,.94,2.1,11,11,0,0,1,.35,3,7.69,7.69,0,0,1-.87,3.71,8.35,8.35,0,0,1-2.36,2.73,10.87,10.87,0,0,1-3.49,1.7,15,15,0,0,1-4.24.59q-6.33,0-9.52-2.45a9,9,0,0,1-3.36-7.25h5.85a4.22,4.22,0,0,0,1.81,3.51,7.32,7.32,0,0,0,4.43,1.29,7.56,7.56,0,0,0,4.37-1,3.3,3.3,0,0,0,1.48-2.84,4.55,4.55,0,0,0-.17-1.29,2.44,2.44,0,0,0-.68-1.07,4.55,4.55,0,0,0-1.38-.85,13.1,13.1,0,0,0-2.27-.68q-3.32-.7-5.74-1.42a14.36,14.36,0,0,1-4-1.79,6.65,6.65,0,0,1-2.31-2.6,8.88,8.88,0,0,1-.74-3.89,8.65,8.65,0,0,1,.66-3.36,7.21,7.21,0,0,1,2-2.73,10.08,10.08,0,0,1,3.34-1.83,14.58,14.58,0,0,1,4.69-.68,15.29,15.29,0,0,1,4.72.68,10.79,10.79,0,0,1,3.6,1.92,8.59,8.59,0,0,1,2.34,3,10.09,10.09,0,0,1,.92,3.91Z"/><path d="M113.13,33V27.67h5.68V33Zm0,24.07V35.53h5.68V57Z"/><path d="M136.19,54.13A4.47,4.47,0,0,1,134,56.38a8,8,0,0,1-3.69.81,9.63,9.63,0,0,1-4.48-.94,8.21,8.21,0,0,1-2.93-2.47,10.08,10.08,0,0,1-1.62-3.54,16.85,16.85,0,0,1-.5-4.11,13.48,13.48,0,0,1,.74-4.56,11,11,0,0,1,2-3.54,9,9,0,0,1,3-2.27,8.45,8.45,0,0,1,3.67-.81,6.63,6.63,0,0,1,6,3.23V35.53h5.68V57.24a10.49,10.49,0,0,1-.83,4.3,8.77,8.77,0,0,1-2.27,3.1,10,10,0,0,1-3.41,1.9,13.83,13.83,0,0,1-8.34,0,9.86,9.86,0,0,1-3.3-1.79A8.24,8.24,0,0,1,121.56,62a8.67,8.67,0,0,1-.79-3.76h5.28a3.73,3.73,0,0,0,1.29,3,5.2,5.2,0,0,0,3.43,1.07,6,6,0,0,0,3.84-1.24,4.08,4.08,0,0,0,1.57-3.38Zm-4.67-1.4A4.39,4.39,0,0,0,135,51.14a6.43,6.43,0,0,0,1.37-4.35q0-6.9-4.85-6.9t-4.85,6.55A7.09,7.09,0,0,0,128,51,4.28,4.28,0,0,0,131.52,52.74Z"/><path d="M157.9,57V43.7a4.9,4.9,0,0,0-.85-3.34,3.76,3.76,0,0,0-2.82-.9,4.15,4.15,0,0,0-1.88.41A4.08,4.08,0,0,0,151,41a5,5,0,0,0-.85,1.66,7,7,0,0,0-.28,2V57h-5.68V27.67h5.68V38.32a4.38,4.38,0,0,1,.94-1.33,6,6,0,0,1,1.46-1.07,8.6,8.6,0,0,1,1.83-.7,8.3,8.3,0,0,1,2.1-.26,7.9,7.9,0,0,1,5.39,1.81,6.35,6.35,0,0,1,2.08,5V57Z"/><path d="M178.07,42.87h5.28V49a10.53,10.53,0,0,1-.5,3.25A7.65,7.65,0,0,1,181.28,55a7.49,7.49,0,0,1-2.71,1.9,9.91,9.91,0,0,1-3.91.7,10.34,10.34,0,0,1-4-.7A7.58,7.58,0,0,1,167.92,55a7.13,7.13,0,0,1-1.55-2.75,11.3,11.3,0,0,1-.48-3.32V29.72h5.59v5.81h11.88v4H171.48v8.82a5.56,5.56,0,0,0,.76,3.17,2.82,2.82,0,0,0,2.51,1.11,2.92,2.92,0,0,0,2.51-1.09,5.14,5.14,0,0,0,.81-3.1Z"/><path d="M198.34,42a3.15,3.15,0,0,0-1.11-2.16,4.52,4.52,0,0,0-2.73-.68,6.54,6.54,0,0,0-2.64.41A1.45,1.45,0,0,0,191,41a1.57,1.57,0,0,0,.9,1.4,11.5,11.5,0,0,0,2.6,1l4.72,1.33a11.64,11.64,0,0,1,3.08,1.29,4.31,4.31,0,0,1,1.66,1.86,7.42,7.42,0,0,1,.5,3,5.86,5.86,0,0,1-2.4,4.78q-2.4,1.9-7.12,1.9a15.57,15.57,0,0,1-4.19-.52,9.77,9.77,0,0,1-3.21-1.51,6.72,6.72,0,0,1-2.82-5.44h5.85a2.7,2.7,0,0,0,1.2,2.36,5.38,5.38,0,0,0,3.12.83,6.94,6.94,0,0,0,2.77-.5,1.64,1.64,0,0,0,1.16-1.55,1.85,1.85,0,0,0-.85-1.7,8.87,8.87,0,0,0-2.6-.92,34.19,34.19,0,0,1-5.07-1.46,10.63,10.63,0,0,1-3-1.68,4.62,4.62,0,0,1-1.44-2,7.57,7.57,0,0,1-.37-2.45,5.48,5.48,0,0,1,.5-2.32,5.09,5.09,0,0,1,1.59-1.92,8.57,8.57,0,0,1,2.84-1.33,15.74,15.74,0,0,1,4.28-.5q4.63,0,6.77,1.88A7.23,7.23,0,0,1,203.8,42Z"/><path d="M211,47.76a6.14,6.14,0,0,0,1.42,3.89,4.32,4.32,0,0,0,3.39,1.44,4.75,4.75,0,0,0,2.47-.63,2.86,2.86,0,0,0,1.37-1.77h5.85A9.42,9.42,0,0,1,222,55.79a9.9,9.9,0,0,1-5.94,1.79q-10.74,0-10.74-11.7a13.61,13.61,0,0,1,.7-4.5,9.69,9.69,0,0,1,2-3.45,8.77,8.77,0,0,1,3.25-2.21,11.85,11.85,0,0,1,4.41-.76q5,0,7.53,3.19t2.56,9.61Zm9-3.58a6,6,0,0,0-.42-2.08,4.39,4.39,0,0,0-1-1.48,3.89,3.89,0,0,0-1.4-.87,4.74,4.74,0,0,0-1.61-.28,4,4,0,0,0-2.95,1.24,5.31,5.31,0,0,0-1.42,3.47Z"/><path d="M232.75,47.76a6.14,6.14,0,0,0,1.42,3.89,4.32,4.32,0,0,0,3.39,1.44,4.75,4.75,0,0,0,2.47-.63,2.86,2.86,0,0,0,1.37-1.77h5.85a9.42,9.42,0,0,1-3.49,5.11,9.9,9.9,0,0,1-5.94,1.79q-10.74,0-10.74-11.7a13.61,13.61,0,0,1,.7-4.5,9.69,9.69,0,0,1,2-3.45,8.77,8.77,0,0,1,3.25-2.21,11.85,11.85,0,0,1,4.41-.76q5,0,7.53,3.19t2.56,9.61Zm9-3.58a6,6,0,0,0-.42-2.08,4.39,4.39,0,0,0-1-1.48,3.89,3.89,0,0,0-1.4-.87,4.74,4.74,0,0,0-1.61-.28,4,4,0,0,0-2.95,1.24,5.31,5.31,0,0,0-1.42,3.47Z"/><path d="M249.44,33V27.67h5.68V33Zm0,24.07V35.53h5.68V57Z"/><path d="M271.27,57V44q0-2.49-.83-3.36a3.81,3.81,0,0,0-2.84-.87q-4.41,0-4.41,4.93V57h-5.68V35.53h5.42v3.14a6.9,6.9,0,0,1,2.66-2.77,8.63,8.63,0,0,1,4.28-.94,8.5,8.5,0,0,1,2.84.46A6,6,0,0,1,275,36.8,6.6,6.6,0,0,1,276.45,39a8.07,8.07,0,0,1,.55,3.08V57Z"/><path d="M294.24,54.13A4.47,4.47,0,0,1,292,56.38a8,8,0,0,1-3.69.81,9.63,9.63,0,0,1-4.48-.94,8.21,8.21,0,0,1-2.93-2.47,10.08,10.08,0,0,1-1.62-3.54,16.85,16.85,0,0,1-.5-4.11,13.48,13.48,0,0,1,.74-4.56,11,11,0,0,1,2-3.54,9,9,0,0,1,3-2.27,8.45,8.45,0,0,1,3.67-.81,6.63,6.63,0,0,1,6,3.23V35.53h5.68V57.24a10.49,10.49,0,0,1-.83,4.3,8.77,8.77,0,0,1-2.27,3.1,10,10,0,0,1-3.41,1.9,13.83,13.83,0,0,1-8.34,0,9.86,9.86,0,0,1-3.3-1.79A8.24,8.24,0,0,1,279.61,62a8.67,8.67,0,0,1-.79-3.76h5.28a3.73,3.73,0,0,0,1.29,3,5.2,5.2,0,0,0,3.43,1.07,6,6,0,0,0,3.84-1.24,4.08,4.08,0,0,0,1.57-3.38Zm-4.67-1.4A4.39,4.39,0,0,0,293,51.14a6.43,6.43,0,0,0,1.37-4.35q0-6.9-4.85-6.9t-4.85,6.55A7.09,7.09,0,0,0,286.1,51,4.28,4.28,0,0,0,289.57,52.74Z"/><path d="M87.76,91.67v-29H102q4.28,0,6.51,2.12a7.61,7.61,0,0,1,2.23,5.79,5.76,5.76,0,0,1-1,3.34A5.52,5.52,0,0,1,107.23,76a8.44,8.44,0,0,1,1.73.9,5.33,5.33,0,0,1,1.4,1.4,7.13,7.13,0,0,1,.94,2,9.51,9.51,0,0,1,.35,2.73A8,8,0,0,1,109,89.33q-2.66,2.34-8.17,2.34Zm5.85-24V74h7.64q3.67,0,3.67-3.14a2.88,2.88,0,0,0-.94-2.4,5,5,0,0,0-3.08-.74Zm7.69,19a4.42,4.42,0,0,0,3.27-1.18,4,4,0,0,0,1.18-3,3.27,3.27,0,0,0-1.16-2.79,5.22,5.22,0,0,0-3.21-.87H93.61v7.82Z"/><path d="M126.76,91.67v-3a7.29,7.29,0,0,1-6.68,3.58,7.46,7.46,0,0,1-2.95-.57,6.53,6.53,0,0,1-2.29-1.62,7.63,7.63,0,0,1-1.51-2.49,9.06,9.06,0,0,1-.55-3.23V70.18h5.68V83.46q0,4,3.63,4a4,4,0,0,0,3.3-1.37,5.41,5.41,0,0,0,1.11-3.52V70.18h5.63V91.67Z"/><path d="M149.29,91.67l0-2.62a6.55,6.55,0,0,1-6,3.19,8.86,8.86,0,0,1-3.76-.79,8.23,8.23,0,0,1-2.93-2.27,11,11,0,0,1-1.92-3.63,15.56,15.56,0,0,1-.7-4.85,16,16,0,0,1,.59-4.48,10.6,10.6,0,0,1,1.72-3.52,7.82,7.82,0,0,1,2.77-2.29,8.33,8.33,0,0,1,3.73-.81A7.48,7.48,0,0,1,149.16,73V62.32h5.59V91.67Zm-4.72-4.06A4.24,4.24,0,0,0,148,85.9a6.87,6.87,0,0,0,1.38-4.45q0-7-4.76-7t-4.89,6.64a7.64,7.64,0,0,0,1.35,4.69A4.17,4.17,0,0,0,144.58,87.61Z"/><path d="M171.91,91.67l0-2.62a6.55,6.55,0,0,1-6,3.19,8.86,8.86,0,0,1-3.76-.79,8.23,8.23,0,0,1-2.93-2.27,11,11,0,0,1-1.92-3.63,15.56,15.56,0,0,1-.7-4.85,16,16,0,0,1,.59-4.48,10.6,10.6,0,0,1,1.72-3.52,7.82,7.82,0,0,1,2.77-2.29,8.33,8.33,0,0,1,3.73-.81A7.48,7.48,0,0,1,171.78,73V62.32h5.59V91.67Zm-4.72-4.06a4.24,4.24,0,0,0,3.43-1.7A6.87,6.87,0,0,0,172,81.45q0-7-4.76-7t-4.89,6.64a7.64,7.64,0,0,0,1.35,4.69A4.17,4.17,0,0,0,167.2,87.61Z"/><path d="M193.32,88.83a4.47,4.47,0,0,1-2.21,2.25,7.87,7.87,0,0,1-3.6.81,8.8,8.8,0,0,1-3.14-.55,7.11,7.11,0,0,1-2.49-1.57,7.28,7.28,0,0,1-1.64-2.45,8.3,8.3,0,0,1-.59-3.21V70.18h5.68v13.1q0,4,3.63,4a4.42,4.42,0,0,0,3.17-1.14,3.79,3.79,0,0,0,1.2-2.88V70.18H199V92.24a10.24,10.24,0,0,1-.76,4.06,8.63,8.63,0,0,1-2.1,3,9.25,9.25,0,0,1-3.14,1.88,11.3,11.3,0,0,1-3.87.66q-4.76,0-7.12-2.4a9,9,0,0,1-2.36-6.59h5.29a4,4,0,0,0,1.11,3A4.6,4.6,0,0,0,189.39,97a3.44,3.44,0,0,0,1.48-.33,4,4,0,0,0,1.24-.92,4.39,4.39,0,0,0,.87-1.46,5.45,5.45,0,0,0,.33-1.92Z"/><path class="cls-6" d="M307.63,41.6V36.44h-2v-.9h5v.9h-2V41.6Zm3.67,0V35.54h1.49l1.53,4.84,1.48-4.84h1.46V41.6h-.92V36.51l-1.56,5.09h-.91l-1.63-5.16V41.6Z"/></g></g></svg>